<svg width="33" height="32" viewBox="0 0 33 32" fill="none" xmlns="http://www.w3.org/2000/svg">
<g id="vuesax/outline/verify">
<g id="verify">
<path id="Vector" d="M15.1862 20.2267C14.9196 20.2267 14.6662 20.12 14.4796 19.9334L11.2529 16.7067C10.8662 16.32 10.8662 15.68 11.2529 15.2934C11.6396 14.9067 12.2796 14.9067 12.6662 15.2934L15.1862 17.8134L20.9196 12.08C21.3062 11.6934 21.9462 11.6934 22.3329 12.08C22.7196 12.4667 22.7196 13.1067 22.3329 13.4934L15.8929 19.9334C15.7062 20.12 15.4529 20.2267 15.1862 20.2267Z" fill="#5A5A5A"/>
<path id="Vector_2" d="M16.7993 30.3332C15.9593 30.3332 15.1193 30.0532 14.466 29.4932L12.3593 27.6798C12.146 27.4932 11.6127 27.3065 11.3327 27.3065H9.03932C7.06599 27.3065 5.46599 25.7065 5.46599 23.7332V21.4532C5.46599 21.1732 5.27932 20.6532 5.09266 20.4398L3.29266 18.3198C2.19932 17.0265 2.19932 14.9865 3.29266 13.6932L5.09266 11.5732C5.27932 11.3598 5.46599 10.8398 5.46599 10.5598V8.2665C5.46599 6.29317 7.06599 4.69317 9.03932 4.69317H11.346C11.626 4.69317 12.1593 4.49317 12.3727 4.31984L14.4793 2.5065C15.786 1.3865 17.826 1.3865 19.1327 2.5065L21.2393 4.31984C21.4527 4.5065 21.986 4.69317 22.266 4.69317H24.5327C26.506 4.69317 28.106 6.29317 28.106 8.2665V10.5332C28.106 10.8132 28.306 11.3465 28.4927 11.5598L30.306 13.6665C31.426 14.9732 31.426 17.0132 30.306 18.3198L28.4927 20.4265C28.306 20.6398 28.106 21.1732 28.106 21.4532V23.7198C28.106 25.6932 26.506 27.2932 24.5327 27.2932H22.266C21.986 27.2932 21.4527 27.4932 21.2393 27.6665L19.1327 29.4798C18.4793 30.0532 17.6393 30.3332 16.7993 30.3332ZM9.03932 6.69317C8.17266 6.69317 7.46599 7.39984 7.46599 8.2665V10.5465C7.46599 11.3065 7.10599 12.2798 6.61266 12.8532L4.81266 14.9732C4.34599 15.5198 4.34599 16.4665 4.81266 17.0132L6.61266 19.1332C7.10599 19.7198 7.46599 20.6798 7.46599 21.4398V23.7198C7.46599 24.5865 8.17266 25.2932 9.03932 25.2932H11.346C12.1193 25.2932 13.0927 25.6532 13.6793 26.1598L15.786 27.9732C16.3327 28.4398 17.2927 28.4398 17.8393 27.9732L19.946 26.1598C20.5327 25.6665 21.506 25.2932 22.2793 25.2932H24.546C25.4127 25.2932 26.1193 24.5865 26.1193 23.7198V21.4532C26.1193 20.6798 26.4793 19.7065 26.986 19.1198L28.7993 17.0132C29.266 16.4665 29.266 15.5065 28.7993 14.9598L26.986 12.8532C26.4793 12.2665 26.1193 11.2932 26.1193 10.5198V8.2665C26.1193 7.39984 25.4127 6.69317 24.546 6.69317H22.2793C21.506 6.69317 20.5327 6.33317 19.946 5.8265L17.8393 4.01317C17.2927 3.5465 16.3327 3.5465 15.786 4.01317L13.6793 5.83984C13.0927 6.33317 12.106 6.69317 11.346 6.69317H9.03932Z" fill="#5A5A5A"/>
</g>
</g>
</svg>
