<svg width="24" height="24" viewBox="0 0 24 24" fill="none" xmlns="http://www.w3.org/2000/svg">
<path d="M7 17.75H5C2.58 17.75 1.25 16.42 1.25 14V9.99999C1.25 7.57999 2.58 6.24999 5 6.24999H6.43C6.66 6.24999 6.89 6.17999 7.09 6.05999L10.01 4.22999C11.47 3.31999 12.89 3.14999 14.01 3.76999C15.13 4.38999 15.74 5.67999 15.74 7.40999V8.36999C15.74 8.77999 15.4 9.11999 14.99 9.11999C14.58 9.11999 14.24 8.77999 14.24 8.36999V7.40999C14.24 6.26999 13.89 5.41999 13.28 5.08999C12.67 4.74999 11.77 4.89999 10.8 5.50999L7.88 7.32999C7.45 7.60999 6.94 7.74999 6.43 7.74999H5C3.42 7.74999 2.75 8.41999 2.75 9.99999V14C2.75 15.58 3.42 16.25 5 16.25H7C7.41 16.25 7.75 16.59 7.75 17C7.75 17.41 7.41 17.75 7 17.75Z" fill="#0057FF"/>
<path d="M12.5516 20.59C11.7616 20.59 10.8916 20.31 10.0216 19.76C9.67155 19.54 9.56155 19.08 9.78155 18.73C10.0016 18.38 10.4616 18.27 10.8116 18.49C11.7816 19.09 12.6816 19.25 13.2916 18.91C13.9016 18.57 14.2516 17.72 14.2516 16.59V12.95C14.2516 12.54 14.5916 12.2 15.0016 12.2C15.4116 12.2 15.7516 12.54 15.7516 12.95V16.59C15.7516 18.31 15.1316 19.61 14.0216 20.23C13.5716 20.47 13.0716 20.59 12.5516 20.59Z" fill="#0057FF"/>
<path d="M18.0003 16.75C17.8403 16.75 17.6903 16.7 17.5503 16.6C17.2203 16.35 17.1503 15.88 17.4003 15.55C18.6603 13.87 18.9303 11.64 18.1203 9.70995C17.9603 9.32995 18.1403 8.88995 18.5203 8.72995C18.9003 8.56995 19.3403 8.74995 19.5003 9.12995C20.5203 11.55 20.1703 14.3599 18.6003 16.4599C18.4503 16.6499 18.2303 16.75 18.0003 16.75Z" fill="#0057FF"/>
<path d="M19.8284 19.25C19.6684 19.25 19.5184 19.2 19.3784 19.1C19.0484 18.85 18.9784 18.38 19.2284 18.05C21.3684 15.2 21.8384 11.38 20.4584 8.08995C20.2984 7.70995 20.4784 7.26995 20.8584 7.10995C21.2484 6.94996 21.6784 7.12996 21.8384 7.50996C23.4284 11.29 22.8884 15.67 20.4284 18.95C20.2884 19.15 20.0584 19.25 19.8284 19.25Z" fill="#0057FF"/>
<path d="M2.00141 22.75C1.81141 22.75 1.62141 22.68 1.47141 22.53C1.18141 22.24 1.18141 21.76 1.47141 21.47L21.4714 1.47C21.7614 1.18 22.2414 1.18 22.5314 1.47C22.8214 1.76 22.8214 2.24 22.5314 2.53L2.53141 22.53C2.38141 22.68 2.19141 22.75 2.00141 22.75Z" fill="#0057FF"/>
</svg>
