<svg width="18" height="20" viewBox="0 0 18 20" fill="none" xmlns="http://www.w3.org/2000/svg">
<path d="M9 2C7.21997 2 5.47991 2.52784 3.99987 3.51677C2.51983 4.50571 1.36628 5.91131 0.685088 7.55585C0.00389961 9.20038 -0.17433 11.01 0.172936 12.7558C0.520203 14.5016 1.37737 16.1053 2.63604 17.364C3.89471 18.6226 5.49836 19.4798 7.24419 19.8271C8.99002 20.1743 10.7996 19.9961 12.4442 19.3149C14.0887 18.6337 15.4943 17.4802 16.4832 16.0001C17.4722 14.5201 18 12.78 18 11C17.9972 8.61391 17.0481 6.32636 15.3609 4.63915C13.6736 2.95193 11.3861 2.00281 9 2ZM9 18.3636C7.54361 18.3636 6.11993 17.9318 4.90899 17.1226C3.69804 16.3135 2.75423 15.1635 2.19689 13.8179C1.63955 12.4724 1.49373 10.9918 1.77786 9.56343C2.06198 8.13502 2.7633 6.82294 3.79313 5.79312C4.82295 4.7633 6.13502 4.06198 7.56343 3.77785C8.99183 3.49373 10.4724 3.63955 11.8179 4.19689C13.1635 4.75422 14.3135 5.69804 15.1226 6.90898C15.9318 8.11993 16.3636 9.54361 16.3636 11C16.3615 12.9523 15.585 14.824 14.2045 16.2045C12.824 17.585 10.9523 18.3615 9 18.3636ZM13.9091 11C13.9091 11.217 13.8229 11.4251 13.6695 11.5785C13.516 11.732 13.3079 11.8182 13.0909 11.8182H9C8.78301 11.8182 8.5749 11.732 8.42146 11.5785C8.26802 11.4251 8.18182 11.217 8.18182 11V6.09091C8.18182 5.87391 8.26802 5.66581 8.42146 5.51237C8.5749 5.35893 8.78301 5.27273 9 5.27273C9.217 5.27273 9.4251 5.35893 9.57854 5.51237C9.73198 5.66581 9.81818 5.87391 9.81818 6.09091V10.1818H13.0909C13.3079 10.1818 13.516 10.268 13.6695 10.4215C13.8229 10.5749 13.9091 10.783 13.9091 11Z" fill="#1C1C1C"/>
</svg>
