<svg width="24" height="24" viewBox="0 0 24 24" xmlns="http://www.w3.org/2000/svg">
<g id="&#208;&#189;&#208;&#176;&#208;&#183;&#208;&#178;&#208;&#176;&#208;&#189;&#208;&#184;&#208;&#181;=search, &#209;&#128;&#208;&#176;&#208;&#183;&#208;&#188;&#208;&#181;&#209;&#128;=24&#195;&#151;24">
<path id="Vector" d="M3.62447 15.0004C5.00921 16.3871 6.85324 17.2196 8.80917 17.3409C10.7651 17.4623 12.6979 16.8643 14.2435 15.6594L19.5615 20.9774C19.7501 21.1596 20.0027 21.2604 20.2649 21.2581C20.5271 21.2558 20.7779 21.1507 20.9633 20.9652C21.1487 20.7798 21.2539 20.529 21.2561 20.2668C21.2584 20.0046 21.1576 19.752 20.9755 19.5634L15.6575 14.2454C16.9158 12.6306 17.5107 10.5966 17.3209 8.55819C17.131 6.51981 16.1708 4.63062 14.636 3.27589C13.1011 1.92115 11.1073 1.20293 9.06114 1.2677C7.01496 1.33247 5.07056 2.17534 3.62447 3.62442C2.87727 4.37124 2.28454 5.25797 1.88013 6.23394C1.47573 7.2099 1.26758 8.25599 1.26758 9.31242C1.26758 10.3689 1.47573 11.4149 1.88013 12.3909C2.28454 13.3669 2.87727 14.2536 3.62447 15.0004ZM5.03847 5.04042C6.02705 4.05187 7.3278 3.43666 8.7191 3.29962C10.1104 3.16257 11.5062 3.51217 12.6686 4.28885C13.8311 5.06552 14.6883 6.22122 15.0942 7.55904C15.5001 8.89686 15.4296 10.334 14.8946 11.6257C14.3597 12.9173 13.3935 13.9836 12.1606 14.6427C10.9277 15.3019 9.5044 15.5131 8.13319 15.2405C6.76199 14.9679 5.52772 14.2283 4.64067 13.1478C3.75362 12.0672 3.26868 10.7125 3.26847 9.31442C3.26573 8.52 3.42078 7.73293 3.72462 6.9989C4.02846 6.26487 4.47505 5.59849 5.03847 5.03842V5.04042Z" />
</g>
</svg>
