<svg width="16" height="17" viewBox="0 0 16 17"  xmlns="http://www.w3.org/2000/svg">
<g id="Icon">
<path id="Subtract" fill-rule="evenodd" clip-rule="evenodd" d="M13.3565 7.18985C13.3565 8.4566 12.9168 9.62064 12.1817 10.5377H12.1848C12.1848 10.5377 10.3231 13.0289 8.88097 14.7929C8.42087 15.3556 7.57926 15.3554 7.11944 14.7924C5.68187 13.0323 3.82264 10.5431 3.82264 10.5431L3.8183 10.5377C3.08318 9.62064 2.64346 8.4566 2.64346 7.18985C2.64346 4.23153 5.04166 1.83333 7.99998 1.83333C10.9583 1.83333 13.3565 4.23153 13.3565 7.18985ZM9.99997 7.16674C9.99997 8.27131 9.10454 9.16674 7.99997 9.16674C6.8954 9.16674 5.99997 8.27131 5.99997 7.16674C5.99997 6.06217 6.8954 5.16674 7.99997 5.16674C9.10454 5.16674 9.99997 6.06217 9.99997 7.16674Z"/>
</g>
</svg>
