<svg width="18" height="19" viewBox="0 0 18 19" xmlns="http://www.w3.org/2000/svg">
<g id="Group">
<g id="Group_2">
<g id="Group_3">
<path id="Vector" d="M0.16071 9.68242C0.160151 11.2516 0.570655 12.7835 1.35121 14.1341L0.0859375 18.7482L4.81355 17.5101C6.1161 18.2191 7.58263 18.5933 9.07516 18.5938H9.07901C13.9941 18.5938 17.9947 14.5991 17.9969 9.68941C17.9978 7.31009 17.071 5.07312 15.3871 3.38985C13.7036 1.70682 11.4645 0.779437 9.07861 0.77832C4.16327 0.77832 0.162618 4.77253 0.160488 9.68244L0.16071 9.68242ZM9.07888 18.5937H9.07897H9.07888C9.07878 18.5937 9.07869 18.5937 9.07888 18.5937Z"/>
<path id="Vector_2" fill-rule="evenodd" clip-rule="evenodd" d="M6.77191 5.82365C6.59897 5.43971 6.417 5.43203 6.25252 5.42527C6.1179 5.41955 5.96395 5.41993 5.81017 5.41993C5.6562 5.41993 5.40613 5.47763 5.19468 5.70833C4.98303 5.93905 4.38672 6.49675 4.38672 7.63099C4.38672 8.76535 5.21396 9.8614 5.3292 10.0154C5.44466 10.1691 6.92608 12.5712 9.27207 13.4952C11.222 14.2632 11.6188 14.1104 12.042 14.0719C12.4652 14.0336 13.4077 13.5144 13.5999 12.9761C13.7923 12.4378 13.7923 11.9764 13.7346 11.88C13.677 11.7839 13.523 11.7262 13.2922 11.611C13.0613 11.4957 11.9265 10.9379 11.715 10.861C11.5033 10.7841 11.3494 10.7458 11.1955 10.9766C11.0416 11.2071 10.5995 11.7262 10.4648 11.88C10.3302 12.0341 10.1955 12.0533 9.96467 11.938C9.73377 11.8223 8.99034 11.5791 8.10843 10.7938C7.42222 10.1827 6.95899 9.4281 6.82428 9.19728C6.68966 8.96675 6.80991 8.84187 6.92564 8.72692C7.02935 8.62362 7.15654 8.45774 7.272 8.32319C7.38716 8.18856 7.42559 8.09248 7.50252 7.9387C7.57955 7.78482 7.54104 7.65018 7.48336 7.53486C7.42559 7.41955 6.97702 6.27947 6.77177 5.82358" fill="white"/>
</g>
</g>
</g>
</svg>
