<svg width="20" height="20" viewBox="0 0 20 20" fill="none" xmlns="http://www.w3.org/2000/svg">
<g id="vuesax/outline/eye">
<g id="eye">
<path id="Vector" d="M9.99896 13.6083C8.00729 13.6083 6.39062 11.9916 6.39062 9.99993C6.39062 8.00827 8.00729 6.3916 9.99896 6.3916C11.9906 6.3916 13.6073 8.00827 13.6073 9.99993C13.6073 11.9916 11.9906 13.6083 9.99896 13.6083ZM9.99896 7.6416C8.69896 7.6416 7.64062 8.69993 7.64062 9.99993C7.64062 11.2999 8.69896 12.3583 9.99896 12.3583C11.299 12.3583 12.3573 11.2999 12.3573 9.99993C12.3573 8.69993 11.299 7.6416 9.99896 7.6416Z" fill="#5A5A5A"/>
<path id="Vector_2" d="M9.99844 17.5166C6.8651 17.5166 3.90677 15.6833 1.87344 12.5C0.990104 11.125 0.990104 8.88331 1.87344 7.49997C3.9151 4.31664 6.87344 2.48331 9.99844 2.48331C13.1234 2.48331 16.0818 4.31664 18.1151 7.49997C18.9984 8.87497 18.9984 11.1166 18.1151 12.5C16.0818 15.6833 13.1234 17.5166 9.99844 17.5166ZM9.99844 3.73331C7.30677 3.73331 4.73177 5.34997 2.93177 8.17497C2.30677 9.14997 2.30677 10.85 2.93177 11.825C4.73177 14.65 7.30677 16.2666 9.99844 16.2666C12.6901 16.2666 15.2651 14.65 17.0651 11.825C17.6901 10.85 17.6901 9.14997 17.0651 8.17497C15.2651 5.34997 12.6901 3.73331 9.99844 3.73331Z" fill="#5A5A5A"/>
</g>
</g>
</svg>
