<svg width="25" height="24" viewBox="0 0 25 24" fill="none" xmlns="http://www.w3.org/2000/svg">
<g id="menu">
<g id="vuesax/outline/menu">
<g id="menu_2">
<path id="Vector" d="M7.89099 7.75H2.33391C1.96065 7.75 1.65112 7.41 1.65112 7C1.65112 6.59 1.96065 6.25 2.33391 6.25L7.89099 6.25C8.26424 6.25 8.57377 6.59 8.57377 7C8.57377 7.41 8.26424 7.75 7.89099 7.75Z" fill="#5A5A5A"/>
<path id="Vector_2" d="M7.43825 12.75H2.33391C1.96065 12.75 1.65112 12.41 1.65112 12C1.65112 11.59 1.96065 11.25 2.33391 11.25L7.43825 11.25C7.81151 11.25 8.12104 11.59 8.12104 12C8.12104 12.41 7.81151 12.75 7.43825 12.75Z" fill="#5A5A5A"/>
<path id="Vector_3" d="M8.73842 17.75H2.33391C1.96065 17.75 1.65112 17.41 1.65112 17C1.65112 16.59 1.96065 16.25 2.33391 16.25L8.73842 16.25C9.11168 16.25 9.42121 16.59 9.42121 17C9.42121 17.41 9.11168 17.75 8.73842 17.75Z" fill="#5A5A5A"/>
</g>
</g>
<g id="Group">
<g id="Group_2">
<circle id="Ellipse" cx="16.0454" cy="10.9898" r="5.95113" transform="rotate(6.97573 16.0454 10.9898)" stroke="#5A5A5A" stroke-width="1.5"/>
</g>
<path id="Vector_4" d="M19.9597 16.0752L22.2269 18.9746" stroke="#5A5A5A" stroke-width="1.5" stroke-linecap="round"/>
</g>
</g>
</svg>
