<svg width="24" height="24" viewBox="0 0 24 24" fill="none" xmlns="http://www.w3.org/2000/svg">
<path d="M10.3199 5.92891C10.3199 6.11891 10.2499 6.30891 10.0999 6.45891L4.55994 11.9989L10.0999 17.5389C10.3899 17.8289 10.3899 18.3089 10.0999 18.5989C9.80994 18.8889 9.32994 18.8889 9.03994 18.5989L2.96994 12.5289C2.67994 12.2389 2.67994 11.7589 2.96994 11.4689L9.03994 5.39891C9.32994 5.10891 9.80994 5.10891 10.0999 5.39891C10.2499 5.53891 10.3199 5.73891 10.3199 5.92891Z" fill="#028DFF"/>
<path d="M21.2499 12C21.2499 12.41 20.9099 12.75 20.4999 12.75L3.66992 12.75C3.25992 12.75 2.91992 12.41 2.91992 12C2.91992 11.59 3.25992 11.25 3.66992 11.25L20.4999 11.25C20.9099 11.25 21.2499 11.59 21.2499 12Z" fill="#028DFF"/>
</svg>
