<?xml version="1.0" encoding="utf-8"?><svg viewBox="0 0 159 43" xmlns="http://www.w3.org/2000/svg" xmlns:xlink="http://www.w3.org/1999/xlink"><style>:root>svg{display:none}:root>svg:target{display:block}</style><svg fill="none" viewBox="0 0 24 24" id="Icon-lock" xmlns="http://www.w3.org/2000/svg"><path d="M18 10.75c-.41 0-.75-.34-.75-.75V8c0-3.15-.89-5.25-5.25-5.25S6.75 4.85 6.75 8v2c0 .41-.34.75-.75.75s-.75-.34-.75-.75V8c0-2.9.7-6.75 6.75-6.75S18.75 5.1 18.75 8v2c0 .41-.34.75-.75.75zM12 19.25c-1.79 0-3.25-1.46-3.25-3.25s1.46-3.25 3.25-3.25 3.25 1.46 3.25 3.25-1.46 3.25-3.25 3.25zm0-5c-.96 0-1.75.79-1.75 1.75s.79 1.75 1.75 1.75 1.75-.79 1.75-1.75-.79-1.75-1.75-1.75z" fill="#0057FF" fill-opacity=".8"/><path d="M17 22.75H7c-4.41 0-5.75-1.34-5.75-5.75v-2c0-4.41 1.34-5.75 5.75-5.75h10c4.41 0 5.75 1.34 5.75 5.75v2c0 4.41-1.34 5.75-5.75 5.75zm-10-12c-3.58 0-4.25.68-4.25 4.25v2c0 3.57.67 4.25 4.25 4.25h10c3.58 0 4.25-.68 4.25-4.25v-2c0-3.57-.67-4.25-4.25-4.25H7z" fill="#0057FF" fill-opacity=".8"/></svg><svg fill="none" viewBox="0 0 32 32" id="ad-01" xmlns="http://www.w3.org/2000/svg"><g fill="#5A5A5A"><path d="M16 21c-2.76 0-5-2.24-5-5s2.24-5 5-5 5 2.24 5 5-2.24 5-5 5zm0-8c-1.653 0-3 1.347-3 3s1.347 3 3 3 3-1.347 3-3-1.347-3-3-3z"/><path d="M20.28 29.587c-.28 0-.56-.04-.84-.107A3.274 3.274 0 0117.48 28l-.16-.266c-.786-1.36-1.866-1.36-2.653 0l-.147.253a3.196 3.196 0 01-1.96 1.493 3.121 3.121 0 01-2.44-.333l-2.293-1.32A3.54 3.54 0 016.52 23c.387-.68.494-1.293.267-1.68-.227-.386-.8-.613-1.587-.613a3.54 3.54 0 01-3.533-3.533v-2.347A3.54 3.54 0 015.2 11.294c.787 0 1.36-.227 1.587-.614.227-.386.133-1-.267-1.68a3.549 3.549 0 01-.346-2.68 3.44 3.44 0 011.653-2.146l2.307-1.32c1.506-.894 3.493-.374 4.4 1.16l.16.266c.786 1.36 1.866 1.36 2.653 0l.147-.253c.906-1.547 2.893-2.067 4.413-1.16l2.293 1.32a3.54 3.54 0 011.307 4.827c-.387.68-.493 1.293-.267 1.68.227.386.8.613 1.587.613a3.54 3.54 0 013.533 3.533v2.347a3.54 3.54 0 01-3.533 3.533c-.787 0-1.36.227-1.587.614-.226.386-.133 1 .267 1.68.467.813.6 1.773.347 2.68A3.44 3.44 0 0124.2 27.84l-2.306 1.32a3.318 3.318 0 01-1.614.427zM16 24.654c1.187 0 2.294.746 3.054 2.066l.146.254c.16.28.427.48.747.56.32.08.64.04.907-.12l2.306-1.334a1.542 1.542 0 00.574-2.093c-.76-1.307-.854-2.653-.267-3.68.587-1.027 1.8-1.613 3.32-1.613.853 0 1.533-.68 1.533-1.534v-2.346c0-.84-.68-1.534-1.533-1.534-1.52 0-2.733-.586-3.32-1.613-.587-1.027-.493-2.373.267-3.68.2-.347.253-.76.146-1.16a1.56 1.56 0 00-.706-.933l-2.307-1.32c-.573-.347-1.333-.147-1.68.44l-.147.253c-.76 1.32-1.866 2.067-3.053 2.067-1.187 0-2.293-.747-3.053-2.067L12.787 5a1.224 1.224 0 00-1.653-.426L8.827 5.907A1.542 1.542 0 008.254 8c.76 1.307.853 2.654.266 3.68-.586 1.027-1.8 1.614-3.32 1.614-.853 0-1.533.68-1.533 1.533v2.347c0 .84.68 1.533 1.533 1.533 1.52 0 2.734.587 3.32 1.613.587 1.027.494 2.374-.266 3.68-.2.347-.254.76-.147 1.16.107.4.36.72.707.934l2.306 1.32c.28.173.614.213.92.133.32-.08.587-.293.76-.573l.147-.254c.76-1.306 1.867-2.066 3.053-2.066z"/></g></svg><svg fill="none" viewBox="0 0 33 32" id="ad-02" xmlns="http://www.w3.org/2000/svg"><g fill="#5A5A5A"><path d="M24.826 30.333h-5.333c-3.226 0-5-1.773-5-5V6.667c0-3.227 1.774-5 5-5h5.334c3.226 0 5 1.773 5 5v18.666c0 3.227-1.787 5-5 5zM19.493 3.667c-2.106 0-3 .893-3 3v18.666c0 2.107.894 3 3 3h5.334c2.106 0 3-.893 3-3V6.667c0-2.107-.894-3-3-3h-5.334z"/><path d="M22.16 9h-6.667c-.546 0-1-.453-1-1 0-.547.454-1 1-1h6.667c.546 0 1 .453 1 1 0 .547-.454 1-1 1zM20.826 25h-5.333c-.546 0-1-.453-1-1 0-.547.454-1 1-1h5.333c.547 0 1 .453 1 1 0 .547-.453 1-1 1zM22.16 19.667c-.013 0-.013 0 0 0l-6.68-.067a.99.99 0 01-.987-1.013.996.996 0 011-.987h.014l6.666.067c.547 0 1 .453.987 1.013a1.005 1.005 0 01-1 .987zM19.493 14.334h-4c-.546 0-1-.454-1-1 0-.547.454-1 1-1h4c.547 0 1 .453 1 1 0 .546-.453 1-1 1zM7.52 30.293c-1.213 0-2.36-.746-3.147-2.053L3.28 26.427c-.4-.667-.707-1.76-.707-2.534V6.6a4.94 4.94 0 014.934-4.933A4.94 4.94 0 0112.44 6.6v17.28c0 .773-.307 1.867-.707 2.533l-1.093 1.814c-.76 1.32-1.907 2.066-3.12 2.066zm0-26.627A2.942 2.942 0 004.587 6.6v17.28c0 .413.2 1.146.413 1.507L6.093 27.2c.414.693.934 1.08 1.427 1.08s1.013-.4 1.427-1.08l1.093-1.813c.213-.36.413-1.094.413-1.507V6.6A2.942 2.942 0 007.52 3.667z"/><path d="M11.453 10.334h-7.88c-.546 0-1-.454-1-1 0-.547.454-1 1-1h7.88c.547 0 1 .453 1 1 0 .546-.453 1-1 1z"/></g></svg><svg fill="none" viewBox="0 0 33 32" id="ad-03" xmlns="http://www.w3.org/2000/svg"><g fill="#5A5A5A"><path d="M24.053 30.334H8.747a6.015 6.015 0 01-6.014-6.014v-8.973a6.015 6.015 0 016.014-6.013h15.306a6.015 6.015 0 016.014 6.013v1.92c0 .547-.454 1-1 1h-2.694a1.64 1.64 0 00-1.2.493l-.013.013c-.373.36-.547.854-.507 1.36.08.88.92 1.587 1.88 1.587h2.534c.546 0 1 .454 1 1v1.587a6.018 6.018 0 01-6.014 6.027zm-15.306-19a4.017 4.017 0 00-4.014 4.013v8.973c0 2.213 1.8 4.014 4.014 4.014h15.306c2.214 0 4.014-1.8 4.014-4.014v-.587h-1.534c-2.013 0-3.72-1.493-3.88-3.413a3.648 3.648 0 011.094-2.96 3.648 3.648 0 012.626-1.093h1.694v-.92c0-2.213-1.8-4.013-4.014-4.013H8.747z"/><path d="M3.733 17.547c-.546 0-1-.454-1-1v-6.094A4.839 4.839 0 015.84 5.96l10.587-4a3.49 3.49 0 013.253.4 3.525 3.525 0 011.52 2.907v5.066c0 .547-.453 1-1 1-.547 0-1-.453-1-1V5.267c0-.507-.24-.974-.667-1.267a1.49 1.49 0 00-1.413-.173l-10.587 4a2.833 2.833 0 00-1.813 2.626v6.094a.98.98 0 01-.987 1zM26.534 23.733c-2.014 0-3.72-1.493-3.88-3.413a3.66 3.66 0 011.093-2.973 3.636 3.636 0 012.613-1.08h2.774c1.32.04 2.333 1.08 2.333 2.36v2.746a2.36 2.36 0 01-2.293 2.36h-2.64zm2.573-5.466h-2.733a1.64 1.64 0 00-1.2.493 1.68 1.68 0 00-.52 1.387c.08.88.92 1.586 1.88 1.586h2.613c.173 0 .333-.16.333-.36v-2.747c0-.2-.16-.346-.373-.36z"/><path d="M19.067 17H9.733c-.546 0-1-.453-1-1 0-.547.454-1 1-1h9.334c.546 0 1 .453 1 1 0 .547-.454 1-1 1z"/></g></svg><svg fill="none" viewBox="0 0 33 32" id="ad-04" xmlns="http://www.w3.org/2000/svg"><g fill="#5A5A5A"><path d="M24.853 23.666h-14.2c-1.32 0-2.586-.56-3.48-1.533a4.764 4.764 0 01-1.24-3.6L7.04 5.253a1.45 1.45 0 00-.387-1.12 1.442 1.442 0 00-1.08-.466H3.267c-.547 0-1-.454-1-1 0-.547.453-1 1-1h2.32c.973 0 1.893.413 2.546 1.12.36.4.627.866.774 1.386H25.56c1.347 0 2.587.534 3.493 1.494a4.7 4.7 0 011.24 3.586l-.72 10c-.146 2.44-2.28 4.413-4.72 4.413zM8.973 6.16l-1.04 12.533a2.712 2.712 0 00.707 2.08c.52.573 1.24.88 2.013.88h14.2c1.387 0 2.64-1.173 2.747-2.56l.72-10c.053-.786-.2-1.533-.72-2.08a2.73 2.73 0 00-2.027-.867h-16.6v.014zM22.266 30.333a2.674 2.674 0 01-2.666-2.666C19.6 26.2 20.8 25 22.266 25c1.467 0 2.667 1.2 2.667 2.667 0 1.466-1.2 2.666-2.667 2.666zm0-3.333a.66.66 0 00-.666.667.66.66 0 00.666.666.66.66 0 00.667-.666.66.66 0 00-.667-.667zM11.6 30.333a2.674 2.674 0 01-2.667-2.666c0-1.467 1.2-2.667 2.666-2.667 1.467 0 2.667 1.2 2.667 2.667 0 1.466-1.2 2.666-2.667 2.666zm0-3.333a.66.66 0 00-.667.667.66.66 0 00.666.666.66.66 0 00.667-.666.66.66 0 00-.667-.667z"/><path d="M28.6 11.666h-16c-.547 0-1-.453-1-1 0-.546.453-1 1-1h16c.546 0 1 .454 1 1 0 .547-.454 1-1 1z"/></g></svg><svg fill="none" viewBox="0 0 33 32" id="ad-05" xmlns="http://www.w3.org/2000/svg"><g fill="#5A5A5A"><path d="M15.186 20.227a1 1 0 01-.706-.294l-3.227-3.226a1.006 1.006 0 010-1.414 1.006 1.006 0 011.413 0l2.52 2.52 5.734-5.733a1.006 1.006 0 011.413 0 1.006 1.006 0 010 1.413l-6.44 6.44a1 1 0 01-.707.294z"/><path d="M16.8 30.333c-.84 0-1.68-.28-2.334-.84l-2.107-1.813c-.213-.187-.746-.373-1.026-.373H9.039a3.574 3.574 0 01-3.573-3.574v-2.28c0-.28-.187-.8-.373-1.013l-1.8-2.12c-1.094-1.294-1.094-3.334 0-4.627l1.8-2.12c.186-.213.373-.733.373-1.013V8.267c0-1.974 1.6-3.574 3.573-3.574h2.307c.28 0 .813-.2 1.027-.373l2.106-1.814c1.307-1.12 3.347-1.12 4.654 0l2.106 1.814c.214.186.747.373 1.027.373h2.267c1.973 0 3.573 1.6 3.573 3.574v2.266c0 .28.2.814.387 1.027l1.813 2.106c1.12 1.307 1.12 3.347 0 4.654l-1.813 2.107c-.187.213-.387.746-.387 1.026v2.267c0 1.973-1.6 3.573-3.573 3.573h-2.267c-.28 0-.813.2-1.027.373l-2.106 1.814c-.654.573-1.494.853-2.334.853zM9.04 6.693c-.867 0-1.574.707-1.574 1.574v2.28c0 .76-.36 1.733-.853 2.306l-1.8 2.12c-.467.547-.467 1.493 0 2.04l1.8 2.12c.493.587.853 1.547.853 2.307v2.28c0 .867.707 1.573 1.573 1.573h2.307c.773 0 1.747.36 2.333.867l2.107 1.813c.547.467 1.507.467 2.053 0l2.107-1.813c.587-.494 1.56-.867 2.333-.867h2.267c.867 0 1.573-.706 1.573-1.573v-2.267c0-.773.36-1.747.867-2.333l1.813-2.107c.467-.547.467-1.507 0-2.053l-1.813-2.107c-.507-.586-.867-1.56-.867-2.333V8.267c0-.867-.706-1.574-1.573-1.574h-2.267c-.773 0-1.746-.36-2.333-.866l-2.107-1.814c-.546-.466-1.506-.466-2.053 0L13.679 5.84c-.586.493-1.573.853-2.333.853H9.039z"/></g></svg><svg fill="none" viewBox="0 0 32 32" id="ad-06" xmlns="http://www.w3.org/2000/svg"><path d="M13.32 30.333c-.266 0-.48-.053-.64-.12-.533-.2-1.44-.853-1.44-2.92v-8.6H8.12c-1.786 0-2.426-.84-2.653-1.333-.227-.507-.427-1.533.747-2.88L16.307 3.013c1.36-1.546 2.467-1.44 3-1.24.533.2 1.44.854 1.44 2.92v8.6h3.12c1.787 0 2.427.84 2.653 1.334.227.506.427 1.533-.746 2.88L15.68 28.973c-.946 1.08-1.773 1.36-2.36 1.36zm5.254-26.68c-.04.054-.32.187-.76.694L7.72 15.813c-.373.427-.426.694-.426.747.026.013.266.147.826.147h4.12c.547 0 1 .453 1 1v9.6c0 .666.12.96.174 1.04.04-.054.32-.187.76-.694l10.093-11.466c.373-.427.427-.694.427-.747-.027-.013-.267-.147-.827-.147h-4.12c-.547 0-1-.453-1-1v-9.6c.013-.666-.12-.946-.173-1.04z" fill="#5A5A5A"/></svg><svg fill="none" viewBox="0 0 24 24" id="icon-arrow-bottom" xmlns="http://www.w3.org/2000/svg"><path d="M7 10l5 5 5-5" stroke="#5A5A5A" stroke-width="2" stroke-linecap="round" stroke-linejoin="round"/></svg><svg fill="none" viewBox="0 0 24 24" id="icon-arrow-bottom-2" xmlns="http://www.w3.org/2000/svg"><g fill="#5A5A5A"><path d="M12 21.25c-.19 0-.38-.07-.53-.22L5.4 14.96a.754.754 0 010-1.06c.29-.29.77-.29 1.06 0L12 19.44l5.54-5.54c.29-.29.77-.29 1.06 0 .29.29.29.77 0 1.06l-6.07 6.07c-.15.15-.34.22-.53.22z"/><path d="M12 21.08c-.41 0-.75-.34-.75-.75V3.5c0-.41.34-.75.75-.75s.75.34.75.75v16.83c0 .41-.34.75-.75.75z"/></g></svg><svg fill="none" viewBox="0 0 20 20" id="icon-arrow-bottom-blue" xmlns="http://www.w3.org/2000/svg"><path d="M6 8l4 4 4-4" stroke="#0057FF" stroke-opacity=".8" stroke-width="1.7" stroke-linecap="round" stroke-linejoin="round"/></svg><svg fill="none" viewBox="0 0 24 24" id="icon-arrow-left" xmlns="http://www.w3.org/2000/svg"><path d="M14 7l-5 5 5 5"/></svg><svg fill="none" viewBox="0 0 24 24" id="icon-arrow-right" xmlns="http://www.w3.org/2000/svg"><path d="M10 17l5-5-5-5"/></svg><svg fill="none" viewBox="0 0 20 21" id="icon-arrow-right-blue" xmlns="http://www.w3.org/2000/svg"><path d="M8 14.5l4-4-4-4" stroke="#0057FF" stroke-width="1.7" stroke-linecap="round" stroke-linejoin="round"/></svg><svg fill="none" viewBox="0 0 24 24" id="icon-arrow-top" xmlns="http://www.w3.org/2000/svg"><path d="M17 14l-5-5-5 5" stroke="#5A5A5A" stroke-width="2" stroke-linecap="round" stroke-linejoin="round"/></svg><svg fill="none" viewBox="0 0 24 24" id="icon-arrow-top-2" xmlns="http://www.w3.org/2000/svg"><g fill="#5A5A5A"><path d="M18.07 10.32c-.19 0-.38-.07-.53-.22L12 4.56 6.46 10.1c-.29.29-.77.29-1.06 0a.754.754 0 010-1.06l6.07-6.07c.29-.29.77-.29 1.06 0l6.07 6.07c.29.29.29.77 0 1.06-.14.15-.34.22-.53.22z"/><path d="M12 21.25c-.41 0-.75-.34-.75-.75V3.67c0-.41.34-.75.75-.75s.75.34.75.75V20.5c0 .41-.34.75-.75.75z"/></g></svg><svg viewBox="0 0 24 24" id="icon-cart" xmlns="http://www.w3.org/2000/svg"><path d="M5.19 6.38c-.19 0-.39-.08-.53-.22a.754.754 0 010-1.06l3.63-3.63c.29-.29.77-.29 1.06 0 .29.29.29.77 0 1.06L5.72 6.16c-.15.14-.34.22-.53.22zM18.81 6.38c-.19 0-.38-.07-.53-.22l-3.63-3.63a.754.754 0 010-1.06c.29-.29.77-.29 1.06 0l3.63 3.63c.29.29.29.77 0 1.06-.14.14-.34.22-.53.22z"/><path d="M20.21 10.6H4c-.7.01-1.5.01-2.08-.57-.46-.45-.67-1.15-.67-2.18 0-2.75 2.01-2.75 2.97-2.75h15.56c.96 0 2.97 0 2.97 2.75 0 1.04-.21 1.73-.67 2.18-.52.52-1.22.57-1.87.57zM4.22 9.1h15.79c.45.01.87.01 1.01-.13.07-.07.22-.31.22-1.12 0-1.13-.28-1.25-1.47-1.25H4.22c-1.19 0-1.47.12-1.47 1.25 0 .81.16 1.05.22 1.12.14.13.57.13 1.01.13h.24zM9.76 18.3c-.41 0-.75-.34-.75-.75V14c0-.41.34-.75.75-.75s.75.34.75.75v3.55c0 .42-.34.75-.75.75zM14.36 18.3c-.41 0-.75-.34-.75-.75V14c0-.41.34-.75.75-.75s.75.34.75.75v3.55c0 .42-.34.75-.75.75z"/><path d="M14.89 22.75H8.86c-3.58 0-4.38-2.13-4.69-3.98l-1.41-8.65c-.07-.41.21-.79.62-.86.41-.07.79.21.86.62l1.41 8.64c.29 1.77.89 2.73 3.21 2.73h6.03c2.57 0 2.86-.9 3.19-2.64l1.68-8.75c.08-.41.47-.68.88-.59.41.08.67.47.59.88l-1.68 8.75c-.39 2.03-1.04 3.85-4.66 3.85z"/></svg><svg fill="none" viewBox="0 0 24 24" id="icon-catalog-card" xmlns="http://www.w3.org/2000/svg"><g fill="#1C1C1C"><path d="M7 10.75H5c-2.42 0-3.75-1.33-3.75-3.75V5c0-2.42 1.33-3.75 3.75-3.75h2c2.42 0 3.75 1.33 3.75 3.75v2c0 2.42-1.33 3.75-3.75 3.75zm-2-8c-1.58 0-2.25.67-2.25 2.25v2c0 1.58.67 2.25 2.25 2.25h2c1.58 0 2.25-.67 2.25-2.25V5c0-1.58-.67-2.25-2.25-2.25H5zM19 10.75h-2c-2.42 0-3.75-1.33-3.75-3.75V5c0-2.42 1.33-3.75 3.75-3.75h2c2.42 0 3.75 1.33 3.75 3.75v2c0 2.42-1.33 3.75-3.75 3.75zm-2-8c-1.58 0-2.25.67-2.25 2.25v2c0 1.58.67 2.25 2.25 2.25h2c1.58 0 2.25-.67 2.25-2.25V5c0-1.58-.67-2.25-2.25-2.25h-2zM19 22.75h-2c-2.42 0-3.75-1.33-3.75-3.75v-2c0-2.42 1.33-3.75 3.75-3.75h2c2.42 0 3.75 1.33 3.75 3.75v2c0 2.42-1.33 3.75-3.75 3.75zm-2-8c-1.58 0-2.25.67-2.25 2.25v2c0 1.58.67 2.25 2.25 2.25h2c1.58 0 2.25-.67 2.25-2.25v-2c0-1.58-.67-2.25-2.25-2.25h-2zM7 22.75H5c-2.42 0-3.75-1.33-3.75-3.75v-2c0-2.42 1.33-3.75 3.75-3.75h2c2.42 0 3.75 1.33 3.75 3.75v2c0 2.42-1.33 3.75-3.75 3.75zm-2-8c-1.58 0-2.25.67-2.25 2.25v2c0 1.58.67 2.25 2.25 2.25h2c1.58 0 2.25-.67 2.25-2.25v-2c0-1.58-.67-2.25-2.25-2.25H5z"/></g></svg><svg fill="none" viewBox="0 0 24 24" id="icon-catalog-list" xmlns="http://www.w3.org/2000/svg"><g fill="#1C1C1C"><path d="M19.9 22.75H4.1c-1.92 0-2.85-.98-2.85-2.98v-4.04c0-2.01.93-2.98 2.85-2.98h15.8c1.92 0 2.85.98 2.85 2.98v4.04c0 2-.93 2.98-2.85 2.98zm-15.8-8.5c-1.01 0-1.35.21-1.35 1.48v4.04c0 1.27.34 1.48 1.35 1.48h15.8c1.01 0 1.35-.21 1.35-1.48v-4.04c0-1.27-.34-1.48-1.35-1.48H4.1zM19.9 11.25H4.1c-1.92 0-2.85-.98-2.85-2.98V4.23c0-2.01.93-2.98 2.85-2.98h15.8c1.92 0 2.85.98 2.85 2.98v4.04c0 2-.93 2.98-2.85 2.98zM4.1 2.75c-1.01 0-1.35.21-1.35 1.48v4.04c0 1.27.34 1.48 1.35 1.48h15.8c1.01 0 1.35-.21 1.35-1.48V4.23c0-1.27-.34-1.48-1.35-1.48H4.1z"/></g></svg><svg fill="none" viewBox="0 0 24 24" id="icon-check" xmlns="http://www.w3.org/2000/svg"><path d="M19.334 6.667L9.556 17.334 4.667 12" stroke="#5A5A5A" stroke-width="2.667" stroke-linecap="round" stroke-linejoin="round"/></svg><svg viewBox="0 0 20 20" id="icon-check-in-circle" xmlns="http://www.w3.org/2000/svg"><path d="M10 18.959c-4.942 0-8.958-4.017-8.958-8.959 0-4.941 4.016-8.958 8.958-8.958S18.958 5.059 18.958 10c0 4.942-4.016 8.959-8.958 8.959zm0-16.667C5.75 2.292 2.292 5.75 2.292 10S5.75 17.71 10 17.71 17.708 14.25 17.708 10 14.25 2.292 10 2.292z"/><path d="M8.817 12.984a.624.624 0 01-.442-.184l-2.358-2.358a.629.629 0 010-.883.629.629 0 01.883 0l1.917 1.916L13.1 7.192a.629.629 0 01.883 0 .629.629 0 010 .883L9.258 12.8a.624.624 0 01-.441.184z"/></svg><svg fill="none" viewBox="0 0 24 24" id="icon-clock" xmlns="http://www.w3.org/2000/svg"><path d="M12 1a11 11 0 1011 11A11.013 11.013 0 0012 1zm0 20a9 9 0 119-9 9.01 9.01 0 01-9 9zm6-9a1 1 0 01-1 1h-5a1 1 0 01-1-1V6a1 1 0 012 0v5h4a1 1 0 011 1z" fill="#5A5A5A"/></svg><svg fill="none" viewBox="0 0 24 24" id="icon-close-big" xmlns="http://www.w3.org/2000/svg"><g stroke="#5A5A5A" stroke-width="2" stroke-linecap="round" stroke-linejoin="round"><path d="M5.636 5.636l12.728 12.728M5.636 18.364L18.364 5.636"/></g></svg><svg fill="none" viewBox="0 0 24 24" id="icon-close-sm" xmlns="http://www.w3.org/2000/svg"><path d="M16.707 8.708L13.414 12l3.293 3.293a1 1 0 11-1.414 1.414L12 13.415l-3.293 3.293a1 1 0 11-1.414-1.414L10.586 12 7.293 8.708a1 1 0 111.414-1.414L12 10.587l3.293-3.293a1 1 0 111.414 1.414z" fill="#5A5A5A"/></svg><svg viewBox="0 0 24 24" id="icon-diagramm" xmlns="http://www.w3.org/2000/svg"><path d="M22 22.75H2c-.41 0-.75-.34-.75-.75s.34-.75.75-.75h20c.41 0 .75.34.75.75s-.34.75-.75.75z"/><path d="M14.25 22.75h-4.5c-.41 0-.75-.34-.75-.75V4c0-1.72.95-2.75 2.55-2.75h.9C14.05 1.25 15 2.28 15 4v18c0 .41-.34.75-.75.75zm-3.75-1.5h3V4c0-1.15-.54-1.25-1.05-1.25h-.9c-.51 0-1.05.1-1.05 1.25v17.25zM7 22.75H3c-.41 0-.75-.34-.75-.75V10c0-1.72.88-2.75 2.35-2.75h.8c1.47 0 2.35 1.03 2.35 2.75v12c0 .41-.34.75-.75.75zm-3.25-1.5h2.5V10c0-1.25-.55-1.25-.85-1.25h-.8c-.3 0-.85 0-.85 1.25v11.25zM21 22.75h-4c-.41 0-.75-.34-.75-.75v-7c0-1.72.88-2.75 2.35-2.75h.8c1.47 0 2.35 1.03 2.35 2.75v7c0 .41-.34.75-.75.75zm-3.25-1.5h2.5V15c0-1.25-.55-1.25-.85-1.25h-.8c-.3 0-.85 0-.85 1.25v6.25z"/></svg><svg fill="none" viewBox="0 0 24 24" id="icon-document" xmlns="http://www.w3.org/2000/svg"><g fill="#1C1C1C"><path d="M16 22.75H8c-3.65 0-5.75-2.1-5.75-5.75V7c0-3.65 2.1-5.75 5.75-5.75h8c3.65 0 5.75 2.1 5.75 5.75v10c0 3.65-2.1 5.75-5.75 5.75zm-8-20C5.14 2.75 3.75 4.14 3.75 7v10c0 2.86 1.39 4.25 4.25 4.25h8c2.86 0 4.25-1.39 4.25-4.25V7c0-2.86-1.39-4.25-4.25-4.25H8z"/><path d="M18.5 9.25h-2c-1.52 0-2.75-1.23-2.75-2.75v-2c0-.41.34-.75.75-.75s.75.34.75.75v2c0 .69.56 1.25 1.25 1.25h2c.41 0 .75.34.75.75s-.34.75-.75.75zM12 13.75H8c-.41 0-.75-.34-.75-.75s.34-.75.75-.75h4c.41 0 .75.34.75.75s-.34.75-.75.75zM16 17.75H8c-.41 0-.75-.34-.75-.75s.34-.75.75-.75h8c.41 0 .75.34.75.75s-.34.75-.75.75z"/></g></svg><svg viewBox="0 0 20 20" id="icon-file" xmlns="http://www.w3.org/2000/svg"><path d="M12.501 18.958h-5c-4.525 0-6.458-1.933-6.458-6.458v-5c0-4.525 1.933-6.458 6.458-6.458h4.167a.63.63 0 01.625.625.63.63 0 01-.625.625H7.501c-3.841 0-5.208 1.366-5.208 5.208v5c0 3.842 1.367 5.208 5.208 5.208h5c3.842 0 5.209-1.366 5.209-5.208V8.333a.63.63 0 01.625-.625.63.63 0 01.625.625V12.5c0 4.525-1.934 6.458-6.459 6.458z"/><path d="M18.335 8.958H15c-2.85 0-3.958-1.108-3.958-3.958V1.667c0-.25.15-.484.383-.575a.63.63 0 01.684.133l6.666 6.667a.628.628 0 01-.441 1.066zm-6.042-5.783V5c0 2.15.558 2.708 2.708 2.708h1.825l-4.533-4.533zM10.832 11.458h-5a.63.63 0 01-.625-.625.63.63 0 01.625-.625h5a.63.63 0 01.625.625.63.63 0 01-.625.625zM9.165 14.792H5.832a.63.63 0 01-.625-.625.63.63 0 01.625-.625h3.333a.63.63 0 01.625.625.63.63 0 01-.625.625z"/></svg><svg fill="none" viewBox="0 0 25 24" id="icon-list" xmlns="http://www.w3.org/2000/svg"><path d="M3.333 6h18m-18 6h18m-18 6h18" stroke="#5A5A5A" stroke-width="2" stroke-linecap="round" stroke-linejoin="round"/></svg><svg fill="none" viewBox="0 0 16 17" id="icon-location" xmlns="http://www.w3.org/2000/svg"><path fill-rule="evenodd" clip-rule="evenodd" d="M13.357 7.19c0 1.267-.44 2.43-1.175 3.348h.003s-1.862 2.49-3.304 4.255a1.13 1.13 0 01-1.762 0c-1.437-1.76-3.296-4.25-3.296-4.25l-.005-.005a5.357 5.357 0 119.538-3.348zM10 7.167a2 2 0 11-4 0 2 2 0 014 0z" fill="#5A5A5A"/></svg><svg viewBox="0 0 24 24" id="icon-loup" xmlns="http://www.w3.org/2000/svg"><path d="M3.624 15a8.03 8.03 0 0010.62.66l5.317 5.317a1 1 0 001.415-1.414l-5.318-5.318A8.04 8.04 0 003.623 3.625a8.042 8.042 0 000 11.375zm1.414-9.96a6.043 6.043 0 11-1.77 4.274 6 6 0 011.77-4.276v.002z"/></svg><svg fill="none" viewBox="0 0 25 24" id="icon-main" xmlns="http://www.w3.org/2000/svg"><path d="M10.323 22.75c-.2 0-.36-.04-.48-.09-.4-.15-1.08-.64-1.08-2.19v-6.45h-2.34c-1.34 0-1.82-.63-1.99-1-.17-.38-.32-1.15.56-2.16l7.57-8.6c1.02-1.16 1.85-1.08 2.25-.93.4.15 1.08.64 1.08 2.19v6.45h2.34c1.34 0 1.82.63 1.99 1 .17.38.32 1.15-.56 2.16l-7.57 8.6c-.71.81-1.33 1.02-1.77 1.02zm3.94-20.01c-.03.04-.24.14-.57.52l-7.57 8.6c-.28.32-.32.52-.32.56.02.01.2.11.62.11h3.09c.41 0 .75.34.75.75v7.2c0 .5.09.72.13.78.03-.04.24-.14.57-.52l7.57-8.6c.28-.32.32-.52.32-.56-.02-.01-.2-.11-.62-.11h-3.09c-.41 0-.75-.34-.75-.75v-7.2c.01-.5-.09-.71-.13-.78z" fill="#5A5A5A"/></svg><svg fill="none" viewBox="0 0 24 24" id="icon-message" xmlns="http://www.w3.org/2000/svg"><g fill="#5A5A5A"><path d="M12 22.81c-.69 0-1.34-.35-1.8-.96l-1.5-2a.472.472 0 00-.2-.1H8c-4.17 0-6.75-1.13-6.75-6.75V8c0-4.42 2.33-6.75 6.75-6.75h8c4.42 0 6.75 2.33 6.75 6.75v5c0 4.42-2.33 6.75-6.75 6.75h-.5c-.08 0-.15.04-.2.1l-1.5 2c-.46.61-1.11.96-1.8.96zM8 2.75C4.42 2.75 2.75 4.42 2.75 8v5c0 4.52 1.55 5.25 5.25 5.25h.5c.51 0 1.09.29 1.4.7l1.5 2c.35.46.85.46 1.2 0l1.5-2c.33-.44.85-.7 1.4-.7h.5c3.58 0 5.25-1.67 5.25-5.25V8c0-3.58-1.67-5.25-5.25-5.25H8z"/><path d="M17 8.75H7c-.41 0-.75-.34-.75-.75s.34-.75.75-.75h10c.41 0 .75.34.75.75s-.34.75-.75.75zM13 13.75H7c-.41 0-.75-.34-.75-.75s.34-.75.75-.75h6c.41 0 .75.34.75.75s-.34.75-.75.75z"/></g></svg><svg fill="none" viewBox="0 0 24 24" id="icon-minus" xmlns="http://www.w3.org/2000/svg"><path d="M18 12.75H6c-.41 0-.75-.34-.75-.75s.34-.75.75-.75h12c.41 0 .75.34.75.75s-.34.75-.75.75z" fill="#5A5A5A"/></svg><svg fill="none" viewBox="0 0 32 32" id="icon-pdf" xmlns="http://www.w3.org/2000/svg"><g fill="#5A5A5A"><path d="M30 18v-2h-6v10h2v-4h3v-2h-3v-2h4zm-11 8h-4V16h4a3.003 3.003 0 013 3v4a3.003 3.003 0 01-3 3zm-2-2h2a1.001 1.001 0 001-1v-4a1.001 1.001 0 00-1-1h-2v6zm-6-8H6v10h2v-3h3a2.003 2.003 0 002-2v-3a2.002 2.002 0 00-2-2zm-3 5v-3h3l.001 3H8z"/><path d="M22 14v-4a.912.912 0 00-.3-.7l-7-7A.908.908 0 0014 2H4a2.006 2.006 0 00-2 2v24a2 2 0 002 2h16v-2H4V4h8v6a2.006 2.006 0 002 2h6v2h2zm-8-4V4.4l5.6 5.6H14z"/></g></svg><svg fill="none" viewBox="0 0 32 33" id="icon-pdf-blue" xmlns="http://www.w3.org/2000/svg"><path d="M30 18.5v-2h-6v10h2v-4h3v-2h-3v-2h4zm-11 8h-4v-10h4a3.003 3.003 0 013 3v4a3.003 3.003 0 01-3 3zm-2-2h2a1.001 1.001 0 001-1v-4a1.001 1.001 0 00-1-1h-2v6zm-6-8H6v10h2v-3h3a2.003 2.003 0 002-2v-3a2.002 2.002 0 00-2-2zm-3 5v-3h3l.001 3H8z" fill="#0057FF"/><path d="M22 14.5v-4a.912.912 0 00-.3-.7l-7-7a.908.908 0 00-.7-.3H4a2.006 2.006 0 00-2 2v24a2 2 0 002 2h16v-2H4v-24h8v6a2.006 2.006 0 002 2h6v2h2zm-8-4V4.9l5.6 5.6H14z" fill="#0057FF"/></svg><svg fill="none" viewBox="0 0 24 24" id="icon-phone" xmlns="http://www.w3.org/2000/svg"><g fill="#5A5A5A"><path d="M17.45 22.75c-1.13 0-2.32-.27-3.55-.79-1.2-.51-2.41-1.21-3.59-2.06-1.17-.86-2.3-1.82-3.37-2.87-1.06-1.07-2.02-2.2-2.87-3.36-.86-1.2-1.55-2.4-2.04-3.56-.52-1.24-.78-2.44-.78-3.57 0-.78.14-1.52.41-2.21.28-.71.73-1.37 1.34-1.94.77-.76 1.65-1.14 2.59-1.14.39 0 .79.09 1.13.25.39.18.72.45.96.81L10 5.58c.21.29.37.57.48.85.13.3.2.6.2.89 0 .38-.11.75-.32 1.1a4 4 0 01-.67.85l-.68.71c.01.03.02.05.03.07.12.21.36.57.82 1.11.49.56.95 1.07 1.41 1.54.59.58 1.08 1.04 1.54 1.42.57.48.94.72 1.16.83l-.02.05.73-.72c.31-.31.61-.54.9-.69.55-.34 1.25-.4 1.95-.11.26.11.54.26.84.47l3.32 2.36c.37.25.64.57.8.95.15.38.22.73.22 1.08 0 .48-.11.96-.32 1.41-.21.45-.47.84-.8 1.2-.57.63-1.19 1.08-1.91 1.37-.69.28-1.44.43-2.23.43zm-11.86-20c-.55 0-1.06.24-1.55.72-.46.43-.78.9-.98 1.41-.21.52-.31 1.07-.31 1.66 0 .93.22 1.94.66 2.98.45 1.06 1.08 2.16 1.88 3.26.8 1.1 1.71 2.17 2.71 3.18 1 .99 2.08 1.91 3.19 2.72 1.08.79 2.19 1.43 3.29 1.89 1.71.73 3.31.9 4.63.35.51-.21.96-.53 1.37-.99.23-.25.41-.52.56-.84.12-.25.18-.51.18-.77 0-.16-.03-.32-.11-.5a.757.757 0 00-.28-.3l-3.32-2.36c-.2-.14-.38-.24-.55-.31-.22-.09-.31-.18-.65.03-.2.1-.38.25-.58.45l-.76.75c-.39.38-.99.47-1.45.3l-.27-.12c-.41-.22-.89-.56-1.42-1.01-.48-.41-1-.89-1.63-1.51-.49-.5-.98-1.03-1.49-1.62-.47-.55-.81-1.02-1.02-1.41l-.12-.3c-.06-.23-.08-.36-.08-.5 0-.36.13-.68.38-.93l.75-.78c.2-.2.35-.39.45-.56.08-.13.11-.24.11-.34 0-.08-.03-.2-.08-.32-.07-.16-.18-.34-.32-.53L6.46 3.17a.922.922 0 00-.37-.31c-.16-.07-.33-.11-.5-.11zm8.36 12.26l-.16.68.27-.7c-.05-.01-.09 0-.11.02zM18.5 9.75c-.41 0-.75-.34-.75-.75 0-.36-.36-1.11-.96-1.75-.59-.63-1.24-1-1.79-1-.41 0-.75-.34-.75-.75s.34-.75.75-.75c.97 0 1.99.52 2.88 1.47.83.89 1.37 1.98 1.37 2.78 0 .41-.34.75-.75.75zM22 9.75c-.41 0-.75-.34-.75-.75 0-3.45-2.8-6.25-6.25-6.25-.41 0-.75-.34-.75-.75s.34-.75.75-.75c4.27 0 7.75 3.48 7.75 7.75 0 .41-.34.75-.75.75z"/></g></svg><svg fill="none" viewBox="0 0 24 24" id="icon-plus" xmlns="http://www.w3.org/2000/svg"><g fill="#5A5A5A"><path d="M18 12.75H6c-.41 0-.75-.34-.75-.75s.34-.75.75-.75h12c.41 0 .75.34.75.75s-.34.75-.75.75z"/><path d="M12 18.75c-.41 0-.75-.34-.75-.75V6c0-.41.34-.75.75-.75s.75.34.75.75v12c0 .41-.34.75-.75.75z"/></g></svg><svg viewBox="0 0 20 20" id="icon-print" xmlns="http://www.w3.org/2000/svg"><path d="M13.96 6.458H6.043a.63.63 0 01-.625-.625V4.167c0-2.134.992-3.125 3.125-3.125h2.917c2.133 0 3.125.991 3.125 3.125v1.666a.63.63 0 01-.625.625zm-7.292-1.25h6.667V4.167c0-1.417-.459-1.875-1.875-1.875H8.543c-1.417 0-1.875.458-1.875 1.875v1.041zM10.835 18.958H9.168c-2.017 0-3.125-1.108-3.125-3.125V12.5a.63.63 0 01.625-.625h6.667a.63.63 0 01.625.625v3.333c0 2.017-1.109 3.125-3.125 3.125zm-3.542-5.833v2.708c0 1.317.558 1.875 1.875 1.875h1.667c1.316 0 1.875-.558 1.875-1.875v-2.708H7.293z"/><path d="M15 15.625h-1.667a.63.63 0 01-.625-.625v-1.875H7.292V15a.63.63 0 01-.625.625H5c-2.017 0-3.125-1.108-3.125-3.125V8.333c0-2.016 1.108-3.125 3.125-3.125h10c2.017 0 3.125 1.109 3.125 3.125V12.5c0 2.017-1.108 3.125-3.125 3.125zm-1.042-1.25H15c1.317 0 1.875-.558 1.875-1.875V8.333c0-1.316-.558-1.875-1.875-1.875H5c-1.317 0-1.875.559-1.875 1.875V12.5c0 1.317.558 1.875 1.875 1.875h1.042V12.5a.63.63 0 01.625-.625h6.666a.63.63 0 01.625.625v1.875z"/><path d="M14.165 13.125H5.832a.63.63 0 01-.625-.625.63.63 0 01.625-.625h8.333a.63.63 0 01.625.625.63.63 0 01-.625.625zM8.332 9.792h-2.5a.63.63 0 01-.625-.625.63.63 0 01.625-.625h2.5a.63.63 0 01.625.625.63.63 0 01-.625.625z"/></svg><svg fill="none" viewBox="0 0 24 24" id="icon-rain" xmlns="http://www.w3.org/2000/svg"><path d="M16.652 20.75h-.04c-.41 0-.75-.34-.74-.76 0-.41.34-.74.75-.74h.04c1.14 0 2.23-.42 3.07-1.2 1.55-1.36 1.66-3.3 1.24-4.67-.42-1.37-1.58-2.92-3.61-3.18a.753.753 0 01-.65-.62c-.4-2.39-1.69-4.04-3.63-4.64-2.02-.62-4.35-.01-5.81 1.52-1.42 1.49-1.75 3.56-.93 5.85a.75.75 0 11-1.41.51c-1.01-2.81-.55-5.5 1.26-7.39 1.85-1.93 4.79-2.7 7.34-1.91 2.33.72 3.98 2.64 4.57 5.3 2.04.46 3.67 2 4.32 4.13.71 2.32.06 4.7-1.67 6.22a6.136 6.136 0 01-4.1 1.58z" fill="#0057FF"/><path d="M5.568 20.75h-.05c-2.88-.2-4.19-2.46-4.19-4.47s1.31-4.26 4.19-4.47c.74-.01 1.47.16 2.11.48.37.19.51.64.33 1.01-.19.37-.64.51-1.01.33-.42-.22-.9-.31-1.36-.32-1.89.14-2.75 1.59-2.75 2.97 0 1.38.86 2.83 2.8 2.97.41.03.72.39.69.8-.04.4-.37.7-.76.7zM15.819 10.64c-.27 0-.54-.15-.67-.42a.745.745 0 01.34-1.01c.61-.31 1.3-.48 1.98-.49.38.02.76.32.76.74.01.41-.32.76-.74.76-.46.01-.92.12-1.34.33-.1.07-.22.09-.33.09zM7.97 22.75c-.19 0-.38-.07-.53-.22a.754.754 0 010-1.06l2-2c.29-.29.77-.29 1.06 0 .29.29.29.77 0 1.06l-2 2a.71.71 0 01-.53.22zM11.97 22.75c-.19 0-.38-.07-.53-.22a.754.754 0 010-1.06l2-2c.29-.29.77-.29 1.06 0 .29.29.29.77 0 1.06l-2 2a.71.71 0 01-.53.22zM11.97 18.75c-.19 0-.38-.07-.53-.22a.754.754 0 010-1.06l2-2c.29-.29.77-.29 1.06 0 .29.29.29.77 0 1.06l-2 2a.71.71 0 01-.53.22zM7.97 18.75c-.19 0-.38-.07-.53-.22a.754.754 0 010-1.06l2-2c.29-.29.77-.29 1.06 0 .29.29.29.77 0 1.06l-2 2a.71.71 0 01-.53.22z" fill="#0057FF"/></svg><svg fill="none" viewBox="0 0 25 24" id="icon-search" xmlns="http://www.w3.org/2000/svg"><g fill="#5A5A5A"><path d="M7.891 7.75H2.334c-.373 0-.683-.34-.683-.75s.31-.75.683-.75H7.89c.373 0 .683.34.683.75s-.31.75-.683.75zM7.438 12.75H2.334c-.373 0-.683-.34-.683-.75s.31-.75.683-.75h5.104c.374 0 .683.34.683.75s-.31.75-.683.75zM8.738 17.75H2.334c-.373 0-.683-.34-.683-.75s.31-.75.683-.75h6.404c.374 0 .683.34.683.75s-.31.75-.683.75z"/></g><circle cx="16.045" cy="10.99" r="5.951" transform="rotate(6.976 16.045 10.99)" stroke="#5A5A5A" stroke-width="1.5"/><path d="M19.96 16.075l2.267 2.9" stroke="#5A5A5A" stroke-width="1.5" stroke-linecap="round"/></svg><svg fill="none" viewBox="0 0 24 24" id="icon-security" xmlns="http://www.w3.org/2000/svg"><path d="M12 22.75c-.24 0-.48-.03-.71-.1-5.19-1.43-8.95-6.28-8.95-11.54V6.72c0-1.12.81-2.33 1.85-2.76l5.57-2.28a5.89 5.89 0 014.48 0l5.57 2.28c1.04.43 1.85 1.64 1.85 2.76v4.39c0 5.25-3.77 10.1-8.95 11.54-.23.07-.47.1-.71.1zm0-20a4.4 4.4 0 00-1.67.33L4.76 5.36c-.48.2-.92.85-.92 1.37v4.39c0 4.59 3.3 8.83 7.85 10.09.2.06.42.06.62 0 4.55-1.26 7.85-5.5 7.85-10.09V6.73c0-.52-.44-1.17-.92-1.37l-5.57-2.28A4.4 4.4 0 0012 2.75z" fill="#0057FF"/></svg><svg fill="none" viewBox="0 0 24 24" id="icon-star" xmlns="http://www.w3.org/2000/svg"><path d="M17.66 22.67c-.53 0-1.21-.17-2.06-.67l-2.99-1.77c-.31-.18-.91-.18-1.21 0L8.4 22c-1.77 1.05-2.81.63-3.28.29-.46-.34-1.18-1.21-.71-3.21l.71-3.07c.08-.32-.08-.87-.32-1.11l-2.48-2.48c-1.24-1.24-1.14-2.3-.97-2.82.17-.52.71-1.44 2.43-1.73l3.19-.53c.3-.05.73-.37.86-.64L9.6 3.17c.8-1.61 1.85-1.85 2.4-1.85.55 0 1.6.24 2.4 1.85l1.76 3.52c.14.27.57.59.87.64l3.19.53c1.73.29 2.27 1.21 2.43 1.73.16.52.26 1.58-.97 2.82L19.2 14.9c-.24.24-.39.78-.32 1.11l.71 3.07c.46 2-.25 2.87-.71 3.21-.25.18-.65.38-1.22.38z" fill="#5A5A5A"/></svg><svg viewBox="0 0 24 24" id="icon-star-trnsp" xmlns="http://www.w3.org/2000/svg"><path d="M17.66 22.67c-.53 0-1.21-.17-2.06-.67l-2.99-1.77c-.31-.18-.91-.18-1.21 0L8.4 22c-1.77 1.05-2.81.63-3.28.29-.46-.34-1.18-1.21-.71-3.21l.71-3.07c.08-.32-.08-.87-.32-1.11l-2.48-2.48c-1.24-1.24-1.14-2.3-.97-2.82.17-.52.71-1.44 2.43-1.73l3.19-.53c.3-.05.73-.37.86-.64L9.6 3.17c.8-1.61 1.85-1.85 2.4-1.85.55 0 1.6.24 2.4 1.85l1.76 3.52c.14.27.57.59.87.64l3.19.53c1.73.29 2.27 1.21 2.43 1.73.16.52.26 1.58-.97 2.82L19.2 14.9c-.24.24-.39.78-.32 1.11l.71 3.07c.46 2-.25 2.87-.71 3.21-.25.18-.65.38-1.22.38zM12 18.59c.49 0 .98.12 1.37.35l2.99 1.77c.87.52 1.42.52 1.63.37.21-.15.36-.68.14-1.66l-.71-3.07c-.19-.83.12-1.9.72-2.51l2.48-2.48c.49-.49.71-.97.61-1.3-.11-.33-.57-.6-1.25-.71l-3.19-.53c-.77-.13-1.61-.75-1.96-1.45l-1.76-3.52c-.32-.64-.72-1.02-1.07-1.02-.35 0-.75.38-1.06 1.02L9.17 7.37c-.35.7-1.19 1.32-1.96 1.45l-3.18.53c-.68.11-1.14.38-1.25.71-.11.33.12.82.61 1.3l2.48 2.48c.6.6.91 1.68.72 2.51l-.71 3.07c-.23.99-.07 1.51.14 1.66.21.15.75.14 1.63-.37l2.99-1.77c.38-.23.87-.35 1.36-.35z"/></svg><svg fill="none" viewBox="0 0 24 24" id="icon-temperature" xmlns="http://www.w3.org/2000/svg"><path d="M9.45 14.6l.3-.226V5a2.25 2.25 0 014.5 0v9.374l.3.225a4.25 4.25 0 11-5.1 0z" stroke="#0057FF" stroke-width="1.5"/><path stroke="#0057FF" stroke-width="1.5" stroke-linecap="round" d="M11.25 11.791h-1.5M11.25 7.792h-1.5"/><circle cx="12" cy="18" r=".75" fill="#0057FF" stroke="#0057FF" stroke-width=".5"/></svg><svg viewBox="0 0 19 16" id="icon-tlg" xmlns="http://www.w3.org/2000/svg"><path fill-rule="evenodd" clip-rule="evenodd" d="M1.306 6.888C6.406 4.63 9.807 3.14 11.51 2.422 16.368.37 17.377.012 18.035 0c.145-.002.469.034.678.207.177.146.226.343.25.481.023.139.052.454.029.7-.264 2.811-1.403 9.633-1.983 12.781-.245 1.333-.728 1.78-1.195 1.823-1.016.095-1.788-.682-2.772-1.338-1.54-1.025-2.41-1.664-3.904-2.665-1.728-1.156-.608-1.792.377-2.831.257-.272 4.734-4.41 4.82-4.785.011-.047.021-.222-.081-.314-.102-.092-.253-.06-.362-.036-.155.036-2.614 1.688-7.38 4.957-.698.487-1.33.724-1.897.712-.625-.014-1.826-.359-2.72-.654C.8 8.676-.07 8.485.005 7.87c.04-.32.473-.647 1.301-.982z"/></svg><svg viewBox="0 0 20 12" id="icon-vk" xmlns="http://www.w3.org/2000/svg"><path d="M10.893 12C4.06 12 .163 7.495 0 0h3.423c.112 5.502 2.636 7.832 4.634 8.312V0h3.223v4.745C13.255 4.54 15.329 2.378 16.027 0h3.223c-.537 2.93-2.785 5.093-4.384 5.982 1.599.72 4.16 2.607 5.134 6.018h-3.548c-.762-2.282-2.66-4.048-5.172-4.288V12h-.387z"/></svg><svg fill="none" viewBox="0 0 24 24" id="icon-volume" xmlns="http://www.w3.org/2000/svg"><path d="M7 17.75H5c-2.42 0-3.75-1.33-3.75-3.75v-4c0-2.42 1.33-3.75 3.75-3.75h1.43c.23 0 .46-.07.66-.19l2.92-1.83c1.46-.91 2.88-1.08 4-.46 1.12.62 1.73 1.91 1.73 3.64v.96c0 .41-.34.75-.75.75s-.75-.34-.75-.75v-.96c0-1.14-.35-1.99-.96-2.32-.61-.34-1.51-.19-2.48.42L7.88 7.33c-.43.28-.94.42-1.45.42H5c-1.58 0-2.25.67-2.25 2.25v4c0 1.58.67 2.25 2.25 2.25h2c.41 0 .75.34.75.75s-.34.75-.75.75zM12.552 20.59c-.79 0-1.66-.28-2.53-.83a.747.747 0 11.79-1.27c.97.6 1.87.76 2.48.42.61-.34.96-1.19.96-2.32v-3.64c0-.41.34-.75.75-.75s.75.34.75.75v3.64c0 1.72-.62 3.02-1.73 3.64-.45.24-.95.36-1.47.36zM18 16.75a.75.75 0 01-.6-1.2 5.926 5.926 0 00.72-5.84.75.75 0 01.4-.98c.38-.16.82.02.98.4 1.02 2.42.67 5.23-.9 7.33-.15.19-.37.29-.6.29z" fill="#0057FF"/><path d="M19.828 19.25a.75.75 0 01-.6-1.2c2.14-2.85 2.61-6.67 1.23-9.96a.75.75 0 01.4-.98c.39-.16.82.02.98.4 1.59 3.78 1.05 8.16-1.41 11.44-.14.2-.37.3-.6.3zM2.001 22.75c-.19 0-.38-.07-.53-.22a.754.754 0 010-1.06l20-20c.29-.29.77-.29 1.06 0 .29.29.29.77 0 1.06l-20 20c-.15.15-.34.22-.53.22z" fill="#0057FF"/></svg><svg viewBox="0 0 18 19" id="icon-wup" xmlns="http://www.w3.org/2000/svg"><path d="M.16 9.682c0 1.57.41 3.101 1.191 4.452L.086 18.748l4.728-1.238a8.925 8.925 0 004.261 1.084h.004c4.915 0 8.916-3.995 8.918-8.905 0-2.379-.926-4.616-2.61-6.3A8.867 8.867 0 009.08.78C4.163.778.163 4.772.16 9.681zm8.919 8.912z"/><path fill-rule="evenodd" clip-rule="evenodd" d="M6.772 5.824c-.173-.384-.355-.392-.52-.399-.134-.005-.288-.005-.442-.005a.848.848 0 00-.615.288c-.212.231-.808.789-.808 1.923s.827 2.23.942 2.384c.116.154 1.597 2.556 3.943 3.48 1.95.768 2.347.615 2.77.577.423-.038 1.366-.558 1.558-1.096.192-.538.192-1 .135-1.096-.058-.096-.212-.154-.443-.269-.23-.115-1.365-.673-1.577-.75-.212-.077-.366-.115-.52.116-.153.23-.595.75-.73.903-.135.154-.27.173-.5.058-.231-.116-.975-.359-1.857-1.144-.686-.611-1.149-1.366-1.284-1.597-.134-.23-.014-.355.102-.47.103-.103.23-.27.346-.404.115-.134.154-.23.23-.384.078-.154.039-.289-.019-.404-.057-.115-.506-1.256-.711-1.711" fill="#fff"/></svg><svg fill="none" viewBox="0 0 24 24" id="icon-zm" xmlns="http://www.w3.org/2000/svg"><path d="M18 10.75c-.41 0-.75-.34-.75-.75V8c0-3.15-.89-5.25-5.25-5.25S6.75 4.85 6.75 8v2c0 .41-.34.75-.75.75s-.75-.34-.75-.75V8c0-2.9.7-6.75 6.75-6.75S18.75 5.1 18.75 8v2c0 .41-.34.75-.75.75zM12 19.25c-1.79 0-3.25-1.46-3.25-3.25s1.46-3.25 3.25-3.25 3.25 1.46 3.25 3.25-1.46 3.25-3.25 3.25zm0-5c-.96 0-1.75.79-1.75 1.75s.79 1.75 1.75 1.75 1.75-.79 1.75-1.75-.79-1.75-1.75-1.75z" fill="#0057FF"/><path d="M17 22.75H7c-4.41 0-5.75-1.34-5.75-5.75v-2c0-4.41 1.34-5.75 5.75-5.75h10c4.41 0 5.75 1.34 5.75 5.75v2c0 4.41-1.34 5.75-5.75 5.75zm-10-12c-3.58 0-4.25.68-4.25 4.25v2c0 3.57.67 4.25 4.25 4.25h10c3.58 0 4.25-.68 4.25-4.25v-2c0-3.57-.67-4.25-4.25-4.25H7z" fill="#0057FF"/></svg><svg fill="none" viewBox="0 0 159 43" id="logo" xmlns="http://www.w3.org/2000/svg"><g fill="#028DFF"><path d="M0 41.784V16.577h15.787v5.288h-9.62v4.583h7.681v5.288H6.167v4.76H16.28v5.288H0zM20.234 41.784V16.577h6.237l6.977 11.775a30.9 30.9 0 01.952 1.833c.352.705.634 1.293.846 1.763l.317.705h.07c-.188-1.81-.282-3.244-.282-4.301V16.577h6.167v25.207h-6.202l-7.012-11.74a37.44 37.44 0 01-.952-1.798 74.015 74.015 0 01-.846-1.798l-.317-.705h-.07c.188 1.81.282 3.243.282 4.301v11.74h-6.167zM46.8 41.784V16.577h15.787v5.288h-9.62v4.583h7.682v5.288h-7.682v4.76H63.08v5.288H46.8zM67.034 41.784V16.577h8.775c2.231 0 3.864.2 4.898.6 1.456.563 2.596 1.48 3.418 2.749.822 1.246 1.233 2.773 1.233 4.583 0 1.41-.329 2.762-.987 4.054-.657 1.27-1.585 2.21-2.783 2.82v.071c.235.306.552.811.951 1.516l4.898 8.814h-6.871l-4.475-8.497H73.2v8.497h-6.167zm6.167-13.785h2.678c1.01 0 1.797-.27 2.361-.81.564-.541.846-1.305.846-2.292 0-1.387-.494-2.28-1.48-2.68-.54-.234-1.316-.352-2.326-.352h-2.079v6.134zM88.889 29.127c0-3.69 1.245-6.768 3.735-9.236 2.514-2.491 5.673-3.737 9.479-3.737 3.923 0 7.153 1.116 9.69 3.349l-2.959 4.618c-.729-.658-1.668-1.21-2.819-1.657-1.152-.446-2.256-.67-3.313-.67-2.49 0-4.358.682-5.603 2.045-1.221 1.34-1.832 3.032-1.832 5.077 0 2.327.693 4.183 2.079 5.57 1.41 1.387 3.124 2.08 5.145 2.08 1.832 0 3.535-.611 5.109-1.833v-1.94h-3.559v-5.252h9.021v14.243h-5.145v-.705l.036-1.058h-.071c-.752.658-1.738 1.187-2.96 1.586-1.198.4-2.42.6-3.665.6-3.382 0-6.295-1.187-8.739-3.561-2.42-2.374-3.63-5.547-3.63-9.519zM117.482 41.784V16.577h15.787v5.288h-9.62v4.583h7.682v5.288h-7.682v4.76h10.113v5.288h-16.28zM137.716 41.784V16.577h6.237l6.978 11.775c.281.493.599 1.104.951 1.833.352.705.634 1.293.846 1.763l.317.705h.07c-.188-1.81-.282-3.244-.282-4.301V16.577H159v25.207h-6.202l-7.012-11.74a37.848 37.848 0 01-.952-1.798 73.6 73.6 0 01-.845-1.798l-.317-.705h-.071c.188 1.81.282 3.243.282 4.301v11.74h-6.167z"/></g><g fill="#5A5A5A"><path d="M0 9.49L1.034 8.2c.285.31.64.57 1.063.78.423.21.856.315 1.3.315.57 0 1.023-.145 1.358-.435.335-.29.502-.69.502-1.2 0-.459-.152-.819-.458-1.079-.295-.27-.699-.404-1.21-.404H2.303v-1.56h1.033c.473 0 .862-.14 1.167-.42.305-.28.458-.629.458-1.049 0-.43-.138-.78-.414-1.05-.275-.279-.674-.419-1.196-.419-.797 0-1.555.3-2.274.9L.31 1.169C1.236.39 2.358 0 3.677 0c.896 0 1.654.26 2.274.78.63.52.945 1.229.945 2.128 0 1.05-.482 1.84-1.447 2.37v.03c.542.17.97.469 1.285.899.315.43.472.954.472 1.574 0 .98-.349 1.764-1.048 2.354-.69.58-1.55.87-2.584.87-.67 0-1.324-.13-1.964-.39A4.654 4.654 0 010 9.49zM8.031 10.824L11.708.18h2.009l3.677 10.644h-1.95l-.9-2.728h-3.677l-.886 2.728H8.03zm3.308-4.302h2.732l-.93-2.849-.414-1.65h-.03c-.157.7-.295 1.25-.413 1.65l-.945 2.849zM18.935 10.824V.18h3.736c.975 0 1.758.245 2.348.735.601.48.901 1.149.901 2.008 0 .5-.113.95-.34 1.35-.226.4-.536.71-.93.93v.03c.552.16.97.474 1.256.944.295.47.443.99.443 1.559 0 1.01-.345 1.779-1.034 2.309-.69.52-1.55.78-2.585.78h-3.795zm1.905-6.296h1.846c.404 0 .719-.125.945-.375.237-.26.355-.59.355-.99 0-.39-.118-.704-.355-.944-.226-.25-.551-.375-.974-.375H20.84v2.684zm0 4.632h2.038c.473 0 .842-.14 1.108-.42.275-.29.413-.664.413-1.124 0-.45-.138-.815-.413-1.094-.266-.29-.635-.435-1.108-.435H20.84V9.16zM27.808 5.427c0-1.53.517-2.813 1.55-3.853C30.402.524 31.692 0 33.228 0c1.535 0 2.82.525 3.854 1.574 1.043 1.04 1.565 2.324 1.565 3.853 0 1.57-.522 2.894-1.565 3.973-1.034 1.07-2.319 1.604-3.855 1.604-1.535 0-2.825-.535-3.869-1.604-1.034-1.08-1.55-2.404-1.55-3.973zm1.964 0c0 1.08.335 1.984 1.004 2.714.67.73 1.487 1.094 2.451 1.094.965 0 1.782-.365 2.452-1.094.67-.73 1.004-1.634 1.004-2.714 0-1.03-.335-1.894-1.004-2.594-.67-.71-1.487-1.064-2.452-1.064-.964 0-1.782.355-2.451 1.064-.67.7-1.004 1.565-1.004 2.594zM42.233 9.16h4.164V1.844h-2.806v.795c0 2.858-.453 5.032-1.358 6.521zm-3.027 0h1.063c1.014-1.56 1.52-3.778 1.52-6.656V.18h6.513v8.98h1.167v3.763H47.77v-2.099h-6.808v2.1h-1.758V9.16zM55.29 10.824V.18h6.026v1.664h-4.12v8.98H55.29zM62.908 10.824V.18h6.277v1.664h-4.372v2.789h3.53v1.664h-3.53V9.16h4.608v1.664h-6.513zM71.464 10.824V.18h1.905v4.512h4.8V.18h1.89v10.644h-1.89V6.357h-4.8v4.467h-1.905zM82.745 10.824V.18h6.276v1.664H84.65v2.789h3.529v1.664h-3.53V9.16h4.608v1.664h-6.513zM91.3 10.824V.18h4.046c.984 0 1.787.32 2.407.96.62.64.93 1.474.93 2.503 0 1.03-.31 1.874-.93 2.534-.62.65-1.422.974-2.407.974h-2.141v3.673H91.3zm1.905-5.352h1.787c.55 0 .98-.165 1.284-.495.315-.33.473-.774.473-1.334 0-.55-.158-.984-.473-1.304-.305-.33-.723-.495-1.255-.495h-1.816v3.628zM98.804 10.824L102.481.18h2.009l3.677 10.644h-1.95l-.9-2.728h-3.678l-.886 2.728h-1.949zm3.308-4.302h2.732l-.93-2.849-.414-1.65h-.029c-.158.7-.296 1.25-.414 1.65l-.945 2.849zM111.22 10.824v-8.98h-3.44V.18h8.771v1.664h-3.44v8.98h-1.891zM117.196 5.427c0-1.53.517-2.813 1.551-3.853C119.79.524 121.08 0 122.616 0s2.82.525 3.854 1.574c1.044 1.04 1.565 2.324 1.565 3.853 0 1.57-.521 2.894-1.565 3.973-1.034 1.07-2.318 1.604-3.854 1.604s-2.826-.535-3.869-1.604c-1.034-1.08-1.551-2.404-1.551-3.973zm1.964 0c0 1.08.335 1.984 1.004 2.714.67.73 1.487 1.094 2.452 1.094.965 0 1.782-.365 2.451-1.094.67-.73 1.004-1.634 1.004-2.714 0-1.03-.334-1.894-1.004-2.594-.669-.71-1.486-1.064-2.451-1.064-.965 0-1.782.355-2.452 1.064-.669.7-1.004 1.565-1.004 2.594zM130.107 10.824V.18h4.046c.984 0 1.787.32 2.407.96.62.64.93 1.474.93 2.503 0 1.03-.31 1.874-.93 2.534-.62.65-1.423.974-2.407.974h-2.141v3.673h-1.905zm1.905-5.352h1.787c.551 0 .979-.165 1.284-.495.315-.33.473-.774.473-1.334 0-.55-.158-.984-.473-1.304-.305-.33-.723-.495-1.255-.495h-1.816v3.628zM138.676 5.427c0-1.53.517-2.813 1.551-3.853C141.27.524 142.56 0 144.096 0s2.82.525 3.854 1.574c1.044 1.04 1.565 2.324 1.565 3.853 0 1.57-.521 2.894-1.565 3.973-1.034 1.07-2.318 1.604-3.854 1.604s-2.826-.535-3.869-1.604c-1.034-1.08-1.551-2.404-1.551-3.973zm1.964 0c0 1.08.335 1.984 1.004 2.714.67.73 1.487 1.094 2.452 1.094.965 0 1.782-.365 2.451-1.094.67-.73 1.004-1.634 1.004-2.714 0-1.03-.334-1.894-1.004-2.594-.669-.71-1.486-1.064-2.451-1.064-.965 0-1.782.355-2.452 1.064-.669.7-1.004 1.565-1.004 2.594zM151.587 10.824V.18h3.736c.975 0 1.757.245 2.348.735.6.48.901 1.149.901 2.008 0 .5-.113.95-.34 1.35-.226.4-.536.71-.93.93v.03c.551.16.969.474 1.255.944.295.47.443.99.443 1.559 0 1.01-.345 1.779-1.034 2.309-.689.52-1.55.78-2.584.78h-3.795zm1.905-6.296h1.846c.403 0 .718-.125.945-.375.236-.26.354-.59.354-.99 0-.39-.118-.704-.354-.944-.227-.25-.551-.375-.975-.375h-1.816v2.684zm0 4.632h2.038c.472 0 .841-.14 1.107-.42.276-.29.414-.664.414-1.124 0-.45-.138-.815-.414-1.094-.266-.29-.635-.435-1.107-.435h-2.038V9.16z"/></g></svg><svg fill="none" viewBox="0 0 138 41" id="logo-black" xmlns="http://www.w3.org/2000/svg"><g fill="#5A5A5A"><path d="M6.068 33.612c.503.158.853.405 1.05.74.198.336.296.735.296 1.199-.01.414-.108.769-.296 1.065a2.17 2.17 0 01-.71.725 3.276 3.276 0 01-1.006.414c-.375.089-.76.133-1.154.133-.375 0-.754-.034-1.14-.103a3.382 3.382 0 01-1.02-.355 2.383 2.383 0 01-.77-.666c-.197-.276-.305-.627-.325-1.05h1.228c.04.206.133.38.281.517.148.128.32.237.518.326.207.079.42.138.636.177.227.03.43.045.607.045.207 0 .42-.015.636-.045.227-.03.434-.089.622-.177a1.21 1.21 0 00.458-.37c.119-.168.178-.38.178-.636 0-.208-.045-.395-.133-.563a.86.86 0 00-.415-.4 1.503 1.503 0 00-.577-.132 6.7 6.7 0 00-.606-.03H3.035v-1.11h1.14c.187 0 .379-.014.576-.044.197-.04.375-.103.533-.192.168-.089.3-.202.4-.34.108-.148.167-.356.177-.622 0-.207-.05-.38-.148-.518a.915.915 0 00-.37-.325 1.4 1.4 0 00-.518-.178 2.726 2.726 0 00-.562-.059c-.178 0-.365.015-.562.044-.198.02-.38.07-.548.148-.167.07-.31.168-.429.296a.91.91 0 00-.222.503H1.26c.01-.394.104-.725.282-.991.187-.276.424-.493.71-.651.286-.168.601-.286.947-.355a4.832 4.832 0 011.05-.118c.345 0 .686.034 1.021.103a2.7 2.7 0 01.917.355c.267.158.484.37.651.636.168.267.252.597.252.992 0 .355-.084.67-.252.947-.167.276-.424.498-.769.665zM14.171 36.808a2.16 2.16 0 01-.577.548 3.39 3.39 0 01-1.376.488c-.227.03-.454.044-.68.044-.366 0-.71-.044-1.036-.133a2.648 2.648 0 01-.888-.429 2.265 2.265 0 01-.621-.74 2.22 2.22 0 01-.222-1.006c0-.444.079-.813.236-1.11.168-.305.39-.552.666-.74.276-.187.592-.315.947-.384.365-.079.75-.118 1.154-.118h2.294c0-.661-.144-1.184-.43-1.569-.286-.394-.769-.601-1.45-.621-.414 0-.779.07-1.094.207a1.164 1.164 0 00-.651.68H9.096c.07-.354.207-.655.414-.902.208-.256.454-.463.74-.621.286-.168.597-.291.932-.37a4.38 4.38 0 011.006-.118c.582 0 1.07.098 1.465.295.405.188.73.44.977.755.246.306.419.68.518 1.125.098.443.148.942.148 1.494V37.8h-1.051l-.074-.992zm-1.48-2.53c-.236 0-.512.005-.828.015-.306 0-.602.03-.888.089a1.29 1.29 0 00-.695.37c-.168.187-.252.434-.252.74 0 .226.045.419.133.577.09.157.208.29.356.399.157.108.335.187.532.237.197.049.4.074.607.074.74 0 1.321-.178 1.746-.533.434-.365.656-.893.666-1.583v-.385H12.69zM17.244 30.002h3.018c.503 0 .932.035 1.287.104.365.069.671.192.918.37.217.148.384.345.503.592.128.246.192.537.192.872 0 .78-.35 1.337-1.05 1.672.532.119.917.35 1.154.696.236.345.355.74.355 1.184-.01.414-.08.754-.207 1.02-.129.257-.311.484-.548.68a2.532 2.532 0 01-.843.445 3.695 3.695 0 01-1.14.163h-3.64v-7.798zm1.287 1.11v2.22h1.08c.247 0 .498-.006.755-.016.256-.02.483-.064.68-.133.247-.078.454-.207.622-.384a.953.953 0 00.266-.636c0-.287-.064-.494-.192-.622a.98.98 0 00-.444-.296 1.82 1.82 0 00-.577-.118c-.207-.01-.4-.015-.577-.015H18.53zm0 5.593h2.057a4.6 4.6 0 00.65-.045c.218-.03.405-.084.563-.162.158-.09.286-.208.385-.355a1.08 1.08 0 00.162-.563c0-.296-.069-.527-.207-.695a1.154 1.154 0 00-.562-.385 2.693 2.693 0 00-.666-.103c-.247-.01-.503-.015-.77-.015l-1.612.015v2.308zM28.768 29.914c.621 0 1.159.098 1.612.295.454.198.834.474 1.14.829.315.355.547.78.695 1.272.158.484.237 1.016.237 1.598 0 .582-.08 1.12-.237 1.613-.148.483-.38.903-.695 1.258-.306.345-.69.616-1.154.813-.464.198-1.006.296-1.628.296-.621 0-1.164-.098-1.627-.296a3.353 3.353 0 01-1.155-.813 3.63 3.63 0 01-.695-1.258 5.593 5.593 0 01-.222-1.613c0-.582.074-1.114.222-1.598a3.61 3.61 0 01.695-1.272 3.233 3.233 0 011.17-.829c.463-.197 1.01-.295 1.642-.295zm-.03 6.865c.424 0 .79-.074 1.095-.222.316-.148.572-.35.77-.607.206-.266.354-.572.443-.917.099-.345.148-.72.148-1.125 0-.394-.05-.764-.148-1.11a2.34 2.34 0 00-.444-.917 1.988 1.988 0 00-.77-.621c-.305-.148-.67-.222-1.094-.222-.424 0-.789.074-1.095.222a2.144 2.144 0 00-.77.621 2.65 2.65 0 00-.443.918 4.442 4.442 0 00-.133 1.11c0 .404.044.779.133 1.124.099.345.247.65.444.917.207.257.463.459.77.607.305.148.67.222 1.094.222zM34.849 31.719c.01-.286.015-.573.015-.859v-.858h5.533v6.703h1.02v3.491h-1.212V37.8h-5.697v2.396h-1.213v-3.491c.395 0 .705-.178.932-.533.138-.197.247-.478.326-.843.079-.375.138-.77.177-1.184.05-.454.08-.903.09-1.346.019-.454.029-.814.029-1.08zm4.29-.607h-3.077c-.01.414-.02.878-.03 1.39-.01.514-.03.992-.059 1.436-.01.197-.024.414-.044.65-.02.228-.055.465-.104.711-.04.237-.103.479-.192.725a2.447 2.447 0 01-.34.68h3.846v-5.592zM48.259 37.8v-7.798h5.386v1.11h-4.129V37.8H48.26zM55.81 34.367c.03.345.098.666.207.962.118.286.276.537.473.754.197.217.44.39.725.518.296.118.636.178 1.021.178.187 0 .38-.015.577-.045.207-.04.4-.098.577-.177.178-.09.335-.203.474-.34.138-.139.241-.306.31-.504h1.287c-.088.375-.241.7-.458.977a2.62 2.62 0 01-.755.68c-.286.178-.606.311-.962.4a4.958 4.958 0 01-1.08.118c-.621 0-1.164-.098-1.627-.296a3.203 3.203 0 01-1.14-.813 3.446 3.446 0 01-.68-1.258 5.59 5.59 0 01-.222-1.613c0-.582.08-1.114.237-1.598a3.8 3.8 0 01.71-1.272 3.15 3.15 0 011.124-.829c.444-.197.972-.295 1.584-.295.621 0 1.159.123 1.612.37.454.246.819.572 1.095.976.276.394.469.824.577 1.287.119.464.168.893.148 1.287 0 .09-.005.178-.015.267 0 .089-.005.177-.014.266H55.81zm4.542-1.095c-.02-.66-.227-1.198-.622-1.613-.394-.414-.922-.621-1.583-.621-.365 0-.685.06-.962.178a1.969 1.969 0 00-.695.488 2.35 2.35 0 00-.444.725 3.02 3.02 0 00-.207.843h4.513zM63.314 37.8v-7.798h1.258v3.418h3.906v-3.418h1.258V37.8h-1.258v-3.27h-3.906v3.27h-1.258zM72.7 34.367a3.7 3.7 0 00.207.962c.118.286.276.537.474.754.197.217.439.39.725.518.296.118.636.178 1.02.178.188 0 .38-.015.578-.045.207-.04.399-.098.577-.177.177-.09.335-.203.473-.34.138-.139.242-.306.31-.504h1.288c-.089.375-.242.7-.459.977a2.619 2.619 0 01-.754.68c-.286.178-.607.311-.962.4a4.958 4.958 0 01-1.08.118c-.621 0-1.164-.098-1.628-.296a3.203 3.203 0 01-1.139-.813 3.446 3.446 0 01-.68-1.258 5.59 5.59 0 01-.222-1.613c0-.582.079-1.114.236-1.598a3.8 3.8 0 01.71-1.272c.306-.355.681-.631 1.125-.829.444-.197.972-.295 1.583-.295.622 0 1.16.123 1.613.37.454.246.819.572 1.095.976.276.394.468.824.577 1.287.118.464.167.893.148 1.287 0 .09-.005.178-.015.267 0 .089-.005.177-.015.266H72.7zm4.542-1.095c-.02-.66-.227-1.198-.621-1.613-.395-.414-.922-.621-1.583-.621-.365 0-.686.06-.962.178a1.968 1.968 0 00-.695.488 2.35 2.35 0 00-.444.725 3.02 3.02 0 00-.207.843h4.512zM81.463 40.61h-1.258V30.003h1.198l.06 1.199c.266-.424.626-.74 1.08-.947.463-.217.961-.33 1.494-.34.602 0 1.11.103 1.524.31a2.75 2.75 0 011.05.844c.286.355.498.779.636 1.272.139.483.208 1.006.208 1.568 0 .572-.07 1.1-.207 1.584a3.52 3.52 0 01-.637 1.257 3.051 3.051 0 01-1.08.843c-.434.198-.952.296-1.553.296-.592 0-1.095-.093-1.51-.28a2.785 2.785 0 01-1.005-.74v3.743zm2.411-3.831c.424 0 .78-.074 1.065-.222.296-.158.533-.365.71-.622a2.57 2.57 0 00.4-.917c.089-.345.138-.715.148-1.11 0-.394-.044-.764-.133-1.11a2.426 2.426 0 00-.4-.917 1.948 1.948 0 00-.74-.606c-.295-.158-.655-.237-1.08-.237-.502 0-.936.138-1.301.414a2.537 2.537 0 00-.829 1.021 2.585 2.585 0 00-.222.71 4.49 4.49 0 00-.06.74c0 .296.02.572.06.829.04.246.114.483.222.71.188.375.459.69.814.947.365.246.813.37 1.346.37zM94.21 36.808c-.167.227-.36.41-.577.548a3.394 3.394 0 01-1.376.488c-.227.03-.453.044-.68.044-.365 0-.71-.044-1.036-.133a2.648 2.648 0 01-.888-.429 2.266 2.266 0 01-.621-.74 2.219 2.219 0 01-.222-1.006c0-.444.079-.813.237-1.11.168-.305.39-.552.666-.74.276-.187.591-.315.947-.384a5.45 5.45 0 011.154-.118h2.293c0-.661-.143-1.184-.43-1.569-.285-.394-.769-.601-1.45-.621-.413 0-.778.07-1.094.207a1.164 1.164 0 00-.651.68h-1.346c.069-.354.207-.655.414-.902a2.49 2.49 0 01.74-.621c.286-.168.596-.291.932-.37a4.38 4.38 0 011.006-.118c.582 0 1.07.098 1.465.295.404.188.73.44.976.755.247.306.42.68.518 1.125.099.443.148.942.148 1.494V37.8h-1.05l-.075-.992zm-1.48-2.53c-.236 0-.512.005-.828.015-.305 0-.601.03-.887.089-.287.059-.518.182-.696.37-.168.187-.251.434-.251.74 0 .226.044.419.133.577.089.157.207.29.355.399.158.108.335.187.533.237.197.049.399.074.606.074.74 0 1.322-.178 1.746-.533.434-.365.656-.893.666-1.583v-.385H92.73zM103.039 30.002v1.11h-2.678V37.8h-1.258v-6.688h-2.678v-1.11h6.614zM107.593 29.914c.622 0 1.159.098 1.613.295a3.12 3.12 0 011.139.829c.316.355.548.78.696 1.272a5.15 5.15 0 01.236 1.598 5.29 5.29 0 01-.236 1.613c-.148.483-.38.903-.696 1.258-.306.345-.69.616-1.154.813-.463.198-1.006.296-1.627.296-.622 0-1.164-.098-1.628-.296a3.363 3.363 0 01-1.154-.813 3.627 3.627 0 01-.695-1.258 5.59 5.59 0 01-.222-1.613c0-.582.074-1.114.222-1.598.158-.493.389-.917.695-1.272a3.232 3.232 0 011.169-.829c.464-.197 1.011-.295 1.642-.295zm-.029 6.865c.424 0 .789-.074 1.095-.222.315-.148.572-.35.769-.607.207-.266.355-.572.444-.917.098-.345.148-.72.148-1.125 0-.394-.05-.764-.148-1.11a2.346 2.346 0 00-.444-.917 1.99 1.99 0 00-.769-.621c-.306-.148-.671-.222-1.095-.222-.424 0-.789.074-1.095.222a2.14 2.14 0 00-.769.621 2.625 2.625 0 00-.444.918 4.432 4.432 0 00-.134 1.11c0 .404.045.779.134 1.124.098.345.246.65.444.917.207.257.463.459.769.607.306.148.671.222 1.095.222zM114.218 40.61h-1.258V30.003h1.198l.06 1.199c.266-.424.626-.74 1.08-.947.463-.217.961-.33 1.494-.34.602 0 1.11.103 1.524.31.424.198.774.479 1.05.844.286.355.499.779.637 1.272.138.483.207 1.006.207 1.568 0 .572-.069 1.1-.207 1.584a3.52 3.52 0 01-.637 1.257 3.051 3.051 0 01-1.08.843c-.434.198-.951.296-1.553.296-.592 0-1.095-.093-1.509-.28a2.774 2.774 0 01-1.006-.74v3.743zm2.411-3.831c.424 0 .78-.074 1.066-.222.295-.158.532-.365.71-.622.187-.266.32-.572.399-.917.089-.345.138-.715.148-1.11 0-.394-.044-.764-.133-1.11a2.433 2.433 0 00-.399-.917 1.951 1.951 0 00-.74-.606c-.296-.158-.656-.237-1.08-.237-.503 0-.937.138-1.302.414a2.542 2.542 0 00-.829 1.021 2.62 2.62 0 00-.222.71 4.545 4.545 0 00-.059.74c0 .296.02.572.059.829.04.246.114.483.222.71.188.375.459.69.814.947.365.246.814.37 1.346.37zM125.264 29.914c.621 0 1.159.098 1.613.295.453.198.833.474 1.139.829.316.355.547.78.695 1.272a5.12 5.12 0 01.237 1.598 5.26 5.26 0 01-.237 1.613 3.33 3.33 0 01-.695 1.258c-.306.345-.69.616-1.154.813-.464.198-1.006.296-1.628.296-.621 0-1.163-.098-1.627-.296a3.353 3.353 0 01-1.154-.813 3.61 3.61 0 01-.695-1.258 5.59 5.59 0 01-.222-1.613c0-.582.074-1.114.222-1.598.157-.493.389-.917.695-1.272a3.232 3.232 0 011.169-.829c.463-.197 1.011-.295 1.642-.295zm-.03 6.865c.425 0 .79-.074 1.095-.222.316-.148.572-.35.77-.607.207-.266.355-.572.444-.917.098-.345.147-.72.147-1.125 0-.394-.049-.764-.147-1.11a2.346 2.346 0 00-.444-.917 1.993 1.993 0 00-.77-.621c-.305-.148-.67-.222-1.095-.222-.424 0-.789.074-1.094.222a2.143 2.143 0 00-.77.621 2.66 2.66 0 00-.444.918 4.48 4.48 0 00-.133 1.11c0 .404.045.779.133 1.124.099.345.247.65.444.917.207.257.464.459.77.607.305.148.67.222 1.094.222zM130.631 30.002h3.018c.503 0 .932.035 1.287.104.365.069.671.192.918.37.217.148.384.345.503.592.128.246.192.537.192.872 0 .78-.35 1.337-1.051 1.672.533.119.918.35 1.154.696.237.345.356.74.356 1.184-.01.414-.079.754-.208 1.02-.128.257-.31.484-.547.68a2.536 2.536 0 01-.843.445 3.698 3.698 0 01-1.14.163h-3.639v-7.798zm1.287 1.11v2.22h1.08c.247 0 .498-.006.755-.016.256-.02.483-.064.68-.133.247-.078.454-.207.622-.384a.957.957 0 00.266-.636c0-.287-.064-.494-.192-.622a.988.988 0 00-.444-.296 1.823 1.823 0 00-.577-.118c-.207-.01-.4-.015-.577-.015h-1.613zm0 5.593h2.056c.227 0 .444-.015.652-.045.216-.03.404-.084.562-.162.158-.09.286-.208.384-.355a1.08 1.08 0 00.163-.563c0-.296-.069-.527-.207-.695a1.15 1.15 0 00-.562-.385 2.69 2.69 0 00-.666-.103c-.247-.01-.503-.015-.769-.015l-1.613.015v2.308z"/></g><g fill="#000"><path d="M5.395 12.814v2.98h8.122v4.83H0V.376h13.285V5.12h-7.89v3.037h7.28v4.657h-7.28zM29.59 5.988V.376h5.395v20.248h-4.177L23.41 10.5l.087 5.207v4.917h-5.395V.376h4.119l7.454 10.182-.086-4.57zM45.623 12.814v2.98h8.122v4.83H40.228V.376h13.285V5.12h-7.89v3.037h7.281v4.657h-7.28zM74.546 20.017v.607H68.57l-4.815-7.174v7.174h-5.424V.376h7.716c2.378 0 4.245.607 5.598 1.822 1.354 1.196 2.03 2.835 2.03 4.918 0 1.446-.338 2.69-1.015 3.731-.676 1.022-1.643 1.774-2.9 2.256l4.786 6.914zM63.726 9.719h2.176c.754 0 1.334-.183 1.74-.55.406-.385.61-.925.61-1.62 0-.713-.213-1.253-.639-1.62-.406-.385-.976-.578-1.711-.578h-2.176V9.72zM97.836 9.4c.097 2.276-.28 4.291-1.131 6.046s-2.089 3.124-3.713 4.108C91.387 20.518 89.52 21 87.394 21c-2.03 0-3.849-.444-5.454-1.33a9.858 9.858 0 01-3.77-3.732c-.89-1.6-1.335-3.413-1.335-5.438 0-2.006.445-3.809 1.335-5.41a9.453 9.453 0 013.712-3.73C83.468.453 85.266 0 87.278 0c1.74 0 3.326.318 4.757.955a9.67 9.67 0 013.596 2.719c.967 1.157 1.615 2.516 1.944 4.078h-5.54c-.91-1.716-2.398-2.574-4.467-2.574-1.006 0-1.905.231-2.698.694a4.758 4.758 0 00-1.827 1.88c-.426.81-.639 1.736-.639 2.777 0 1.6.474 2.893 1.422 3.876.947.964 2.224 1.446 3.829 1.446 1.025 0 1.904-.202 2.64-.607.734-.424 1.295-1.051 1.682-1.88h-5.483V9.4h11.342zM107.411 12.814v2.98h8.121v4.83h-13.517V.376H115.3V5.12h-7.889v3.037h7.28v4.657h-7.28zM131.605 5.988V.376H137v20.248h-4.177L125.426 10.5l.087 5.207v4.917h-5.395V.376h4.119l7.455 10.182-.087-4.57z"/></g></svg><svg viewBox="0 0 20 20" id="percent-in-circle" xmlns="http://www.w3.org/2000/svg"><path d="M7.141 13.35a.618.618 0 01-.441-.184.629.629 0 010-.883l5.458-5.458a.629.629 0 01.883 0 .629.629 0 010 .883l-5.458 5.458a.618.618 0 01-.442.184zM7.483 9.258c-.908 0-1.65-.742-1.65-1.65 0-.908.742-1.65 1.65-1.65.909 0 1.65.742 1.65 1.65 0 .908-.741 1.65-1.65 1.65zm0-2.042a.4.4 0 00-.4.4c0 .225.175.4.4.4.225 0 .4-.175.4-.4a.4.4 0 00-.4-.4zM12.933 14.033c-.908 0-1.65-.741-1.65-1.65 0-.908.742-1.65 1.65-1.65.909 0 1.65.742 1.65 1.65 0 .909-.741 1.65-1.65 1.65zm0-2.041a.4.4 0 00-.4.4c0 .225.175.4.4.4.225 0 .4-.175.4-.4 0-.225-.175-.4-.4-.4z"/><path d="M10 18.959c-4.942 0-8.958-4.017-8.958-8.959 0-4.941 4.016-8.958 8.958-8.958S18.958 5.059 18.958 10c0 4.942-4.016 8.959-8.958 8.959zm0-16.667C5.75 2.292 2.292 5.75 2.292 10S5.75 17.71 10 17.71 17.708 14.25 17.708 10 14.25 2.292 10 2.292z"/></svg></svg>