<svg width="33" height="32" viewBox="0 0 33 32" fill="none" xmlns="http://www.w3.org/2000/svg">
<g id="vuesax/outline/shopping-cart">
<g id="shopping-cart">
<path id="Vector" d="M24.8533 23.6665H10.6533C9.33326 23.6665 8.06659 23.1065 7.17326 22.1332C6.27993 21.1598 5.8266 19.8532 5.93327 18.5332L7.03994 5.25317C7.07994 4.83984 6.93326 4.43985 6.65326 4.13318C6.37326 3.82651 5.9866 3.6665 5.57326 3.6665H3.2666C2.71993 3.6665 2.2666 3.21317 2.2666 2.6665C2.2666 2.11984 2.71993 1.6665 3.2666 1.6665H5.58661C6.55994 1.6665 7.47993 2.07983 8.13326 2.7865C8.49326 3.1865 8.75993 3.65318 8.9066 4.17318H25.5599C26.9066 4.17318 28.1466 4.7065 29.0533 5.6665C29.9466 6.63984 30.3999 7.90651 30.2933 9.25317L29.5733 19.2532C29.4266 21.6932 27.2933 23.6665 24.8533 23.6665ZM8.97327 6.15983L7.93327 18.6932C7.8666 19.4665 8.11993 20.1998 8.63993 20.7732C9.15993 21.3465 9.87993 21.6532 10.6533 21.6532H24.8533C26.2399 21.6532 27.4933 20.4798 27.5999 19.0932L28.3199 9.09318C28.3733 8.30651 28.1199 7.55985 27.5999 7.01318C27.0799 6.45318 26.3599 6.14648 25.5733 6.14648H8.97327V6.15983Z" fill="#5A5A5A"/>
<path id="Vector_2" d="M22.2663 30.3333C20.7996 30.3333 19.5996 29.1333 19.5996 27.6667C19.5996 26.2 20.7996 25 22.2663 25C23.7329 25 24.9329 26.2 24.9329 27.6667C24.9329 29.1333 23.7329 30.3333 22.2663 30.3333ZM22.2663 27C21.8929 27 21.5996 27.2933 21.5996 27.6667C21.5996 28.04 21.8929 28.3333 22.2663 28.3333C22.6396 28.3333 22.9329 28.04 22.9329 27.6667C22.9329 27.2933 22.6396 27 22.2663 27Z" fill="#5A5A5A"/>
<path id="Vector_3" d="M11.5993 30.3333C10.1326 30.3333 8.93262 29.1333 8.93262 27.6667C8.93262 26.2 10.1326 25 11.5993 25C13.066 25 14.266 26.2 14.266 27.6667C14.266 29.1333 13.066 30.3333 11.5993 30.3333ZM11.5993 27C11.226 27 10.9326 27.2933 10.9326 27.6667C10.9326 28.04 11.226 28.3333 11.5993 28.3333C11.9726 28.3333 12.266 28.04 12.266 27.6667C12.266 27.2933 11.9726 27 11.5993 27Z" fill="#5A5A5A"/>
<path id="Vector_4" d="M28.5996 11.6665H12.5996C12.0529 11.6665 11.5996 11.2132 11.5996 10.6665C11.5996 10.1198 12.0529 9.6665 12.5996 9.6665H28.5996C29.1463 9.6665 29.5996 10.1198 29.5996 10.6665C29.5996 11.2132 29.1463 11.6665 28.5996 11.6665Z" fill="#5A5A5A"/>
</g>
</g>
</svg>
