<svg width="33" height="32" viewBox="0 0 33 32" fill="none" xmlns="http://www.w3.org/2000/svg">
<g id="vuesax/outline/empty-wallet">
<g id="empty-wallet">
<path id="Vector" d="M24.0534 30.3335H8.74673C5.42673 30.3335 2.7334 27.6402 2.7334 24.3202V15.3468C2.7334 12.0268 5.42673 9.3335 8.74673 9.3335H24.0534C27.3734 9.3335 30.0667 12.0268 30.0667 15.3468V17.2668C30.0667 17.8135 29.6134 18.2668 29.0667 18.2668H26.3734C25.9067 18.2668 25.4801 18.4402 25.1734 18.7602L25.1601 18.7735C24.7867 19.1335 24.6134 19.6268 24.6534 20.1335C24.7334 21.0135 25.5734 21.7201 26.5334 21.7201H29.0667C29.6134 21.7201 30.0667 22.1735 30.0667 22.7201V24.3068C30.0667 27.6401 27.3734 30.3335 24.0534 30.3335ZM8.74673 11.3335C6.5334 11.3335 4.7334 13.1335 4.7334 15.3468V24.3202C4.7334 26.5335 6.5334 28.3335 8.74673 28.3335H24.0534C26.2667 28.3335 28.0667 26.5335 28.0667 24.3202V23.7335H26.5334C24.5201 23.7335 22.8134 22.2402 22.6534 20.3202C22.5467 19.2268 22.9467 18.1469 23.7467 17.3602C24.4401 16.6535 25.3734 16.2668 26.3734 16.2668H28.0667V15.3468C28.0667 13.1335 26.2667 11.3335 24.0534 11.3335H8.74673Z" fill="#5A5A5A"/>
<path id="Vector_2" d="M3.7334 17.5465C3.18673 17.5465 2.7334 17.0932 2.7334 16.5465V10.4533C2.7334 8.46659 3.98673 6.66651 5.84007 5.95984L16.4267 1.95984C17.5201 1.54651 18.7334 1.69324 19.6801 2.35991C20.6401 3.02658 21.2001 4.10657 21.2001 5.26657V10.3332C21.2001 10.8799 20.7467 11.3332 20.2001 11.3332C19.6534 11.3332 19.2001 10.8799 19.2001 10.3332V5.26657C19.2001 4.7599 18.9601 4.29322 18.5334 3.99988C18.1067 3.70655 17.6001 3.63988 17.1201 3.82654L6.5334 7.82654C5.4534 8.23988 4.72007 9.29325 4.72007 10.4533V16.5465C4.7334 17.1065 4.28007 17.5465 3.7334 17.5465Z" fill="#5A5A5A"/>
<path id="Vector_3" d="M26.5337 23.7332C24.5204 23.7332 22.8137 22.2399 22.6537 20.3199C22.547 19.2132 22.947 18.1333 23.747 17.3466C24.427 16.6533 25.3604 16.2666 26.3604 16.2666H29.1337C30.4537 16.3066 31.467 17.3465 31.467 18.6265V21.3733C31.467 22.6533 30.4537 23.6932 29.1737 23.7332H26.5337ZM29.107 18.2666H26.3737C25.907 18.2666 25.4804 18.4399 25.1737 18.7599C24.787 19.1333 24.6004 19.6399 24.6537 20.1466C24.7337 21.0266 25.5737 21.7332 26.5337 21.7332H29.147C29.3204 21.7332 29.4804 21.5733 29.4804 21.3733V18.6265C29.4804 18.4265 29.3204 18.2799 29.107 18.2666Z" fill="#5A5A5A"/>
<path id="Vector_4" d="M19.0667 17H9.7334C9.18673 17 8.7334 16.5467 8.7334 16C8.7334 15.4533 9.18673 15 9.7334 15H19.0667C19.6134 15 20.0667 15.4533 20.0667 16C20.0667 16.5467 19.6134 17 19.0667 17Z" fill="#5A5A5A"/>
</g>
</g>
</svg>
