<svg width="24" height="24" fill="none" xmlns="http://www.w3.org/2000/svg"><path d="M16.652 20.75h-.04c-.41 0-.75-.34-.74-.76 0-.41.34-.74.75-.74h.04c1.14 0 2.23-.42 3.07-1.2 1.55-1.36 1.66-3.3 1.24-4.67-.42-1.37-1.58-2.92-3.61-3.18a.753.753 0 01-.65-.62c-.4-2.39-1.69-4.04-3.63-4.64-2.02-.62-4.35-.01-5.81 1.52-1.42 1.49-1.75 3.56-.93 5.85a.75.75 0 11-1.41.51c-1.01-2.81-.55-5.5 1.26-7.39 1.85-1.93 4.79-2.7 7.34-1.91 2.33.72 3.98 2.64 4.57 5.3 2.04.46 3.67 2 4.32 4.13.71 2.32.06 4.7-1.67 6.22a6.136 6.136 0 01-4.1 1.58z" fill="#0057FF"/><path d="M5.568 20.75h-.05c-2.88-.2-4.19-2.46-4.19-4.47s1.31-4.26 4.19-4.47c.74-.01 1.47.16 2.11.48.37.19.51.64.33 1.01-.19.37-.64.51-1.01.33-.42-.22-.9-.31-1.36-.32-1.89.14-2.75 1.59-2.75 2.97 0 1.38.86 2.83 2.8 2.97.41.03.72.39.69.8-.04.4-.37.7-.76.7zm10.251-10.11c-.27 0-.54-.15-.67-.42a.745.745 0 01.34-1.01c.61-.31 1.3-.48 1.98-.49.38.02.76.32.76.74.01.41-.32.76-.74.76-.46.01-.92.12-1.34.33-.1.07-.22.09-.33.09zM7.97 22.75c-.19 0-.38-.07-.53-.22a.754.754 0 010-1.06l2-2c.29-.29.77-.29 1.06 0 .29.29.29.77 0 1.06l-2 2a.71.71 0 01-.53.22zm4 0c-.19 0-.38-.07-.53-.22a.754.754 0 010-1.06l2-2c.29-.29.77-.29 1.06 0 .29.29.29.77 0 1.06l-2 2a.71.71 0 01-.53.22zm0-4c-.19 0-.38-.07-.53-.22a.754.754 0 010-1.06l2-2c.29-.29.77-.29 1.06 0 .29.29.29.77 0 1.06l-2 2a.71.71 0 01-.53.22zm-4 0c-.19 0-.38-.07-.53-.22a.754.754 0 010-1.06l2-2c.29-.29.77-.29 1.06 0 .29.29.29.77 0 1.06l-2 2a.71.71 0 01-.53.22z" fill="#0057FF"/></svg>"#0057FF"/>
<path d="M15.8186 10.64C15.5486 10.64 15.2786 10.49 15.1486 10.22C14.9586 9.84997 15.1086 9.39997 15.4886 9.20997C16.0986 8.89997 16.7886 8.72997 17.4686 8.71997C17.8486 8.73997 18.2286 9.03997 18.2286 9.45997C18.2386 9.86997 17.9086 10.22 17.4886 10.22C17.0286 10.23 16.5686 10.34 16.1486 10.55C16.0486 10.62 15.9286 10.64 15.8186 10.64Z" fill="#0057FF"/>
<path d="M7.97016 22.75C7.78016 22.75 7.59016 22.68 7.44016 22.53C7.15016 22.24 7.15016 21.76 7.44016 21.47L9.44016 19.47C9.73016 19.18 10.2102 19.18 10.5002 19.47C10.7902 19.76 10.7902 20.24 10.5002 20.53L8.50016 22.53C8.36016 22.68 8.17016 22.75 7.97016 22.75Z" fill="#0057FF"/>
<path d="M11.9702 22.75C11.7802 22.75 11.5902 22.68 11.4402 22.53C11.1502 22.24 11.1502 21.76 11.4402 21.47L13.4402 19.47C13.7302 19.18 14.2102 19.18 14.5002 19.47C14.7902 19.76 14.7902 20.24 14.5002 20.53L12.5002 22.53C12.3602 22.68 12.1702 22.75 11.9702 22.75Z" fill="#0057FF"/>
<path d="M11.9702 18.75C11.7802 18.75 11.5902 18.68 11.4402 18.53C11.1502 18.24 11.1502 17.76 11.4402 17.47L13.4402 15.47C13.7302 15.18 14.2102 15.18 14.5002 15.47C14.7902 15.76 14.7902 16.24 14.5002 16.53L12.5002 18.53C12.3602 18.68 12.1702 18.75 11.9702 18.75Z" fill="#0057FF"/>
<path d="M7.97016 18.75C7.78016 18.75 7.59016 18.68 7.44016 18.53C7.15016 18.24 7.15016 17.76 7.44016 17.47L9.44016 15.47C9.73016 15.18 10.2102 15.18 10.5002 15.47C10.7902 15.76 10.7902 16.24 10.5002 16.53L8.50016 18.53C8.36016 18.68 8.17016 18.75 7.97016 18.75Z" fill="#0057FF"/>
</svg>
