<svg width="24" height="24" fill="none" xmlns="http://www.w3.org/2000/svg"><path d="M7 10.75H5c-2.42 0-3.75-1.33-3.75-3.75V5c0-2.42 1.33-3.75 3.75-3.75h2c2.42 0 3.75 1.33 3.75 3.75v2c0 2.42-1.33 3.75-3.75 3.75zm-2-8c-1.58 0-2.25.67-2.25 2.25v2c0 1.58.67 2.25 2.25 2.25h2c1.58 0 2.25-.67 2.25-2.25V5c0-1.58-.67-2.25-2.25-2.25H5zm14 8h-2c-2.42 0-3.75-1.33-3.75-3.75V5c0-2.42 1.33-3.75 3.75-3.75h2c2.42 0 3.75 1.33 3.75 3.75v2c0 2.42-1.33 3.75-3.75 3.75zm-2-8c-1.58 0-2.25.67-2.25 2.25v2c0 1.58.67 2.25 2.25 2.25h2c1.58 0 2.25-.67 2.25-2.25V5c0-1.58-.67-2.25-2.25-2.25h-2zm2 20h-2c-2.42 0-3.75-1.33-3.75-3.75v-2c0-2.42 1.33-3.75 3.75-3.75h2c2.42 0 3.75 1.33 3.75 3.75v2c0 2.42-1.33 3.75-3.75 3.75zm-2-8c-1.58 0-2.25.67-2.25 2.25v2c0 1.58.67 2.25 2.25 2.25h2c1.58 0 2.25-.67 2.25-2.25v-2c0-1.58-.67-2.25-2.25-2.25h-2zm-10 8H5c-2.42 0-3.75-1.33-3.75-3.75v-2c0-2.42 1.33-3.75 3.75-3.75h2c2.42 0 3.75 1.33 3.75 3.75v2c0 2.42-1.33 3.75-3.75 3.75zm-2-8c-1.58 0-2.25.67-2.25 2.25v2c0 1.58.67 2.25 2.25 2.25h2c1.58 0 2.25-.67 2.25-2.25v-2c0-1.58-.67-2.25-2.25-2.25H5z" fill="#1C1C1C"/></svg>4.75 19 14.75H17Z" fill="#1C1C1C"/>
<path id="Vector_4" d="M7 22.75H5C2.58 22.75 1.25 21.42 1.25 19V17C1.25 14.58 2.58 13.25 5 13.25H7C9.42 13.25 10.75 14.58 10.75 17V19C10.75 21.42 9.42 22.75 7 22.75ZM5 14.75C3.42 14.75 2.75 15.42 2.75 17V19C2.75 20.58 3.42 21.25 5 21.25H7C8.58 21.25 9.25 20.58 9.25 19V17C9.25 15.42 8.58 14.75 7 14.75H5Z" fill="#1C1C1C"/>
</g>
</g>
</svg>
