<svg width="20" height="20" xmlns="http://www.w3.org/2000/svg"><path d="M12.501 18.958h-5c-4.525 0-6.458-1.933-6.458-6.458v-5c0-4.525 1.933-6.458 6.458-6.458h4.167a.63.63 0 01.625.625.63.63 0 01-.625.625H7.501c-3.841 0-5.208 1.366-5.208 5.208v5c0 3.842 1.367 5.208 5.208 5.208h5c3.842 0 5.209-1.366 5.209-5.208V8.333a.63.63 0 01.625-.625.63.63 0 01.625.625V12.5c0 4.525-1.934 6.458-6.459 6.458z"/><path d="M18.335 8.958H15c-2.85 0-3.958-1.108-3.958-3.958V1.667c0-.25.15-.484.383-.575a.63.63 0 01.684.133l6.666 6.667a.628.628 0 01-.441 1.066zm-6.042-5.783V5c0 2.15.558 2.708 2.708 2.708h1.825l-4.533-4.533zm-1.461 8.283h-5a.63.63 0 01-.625-.625.63.63 0 01.625-.625h5a.63.63 0 01.625.625.63.63 0 01-.625.625zm-1.667 3.334H5.832a.63.63 0 01-.625-.625.63.63 0 01.625-.625h3.333a.63.63 0 01.625.625.63.63 0 01-.625.625z"/></svg> 7.89168C18.9513 8.06668 19.0096 8.34168 18.9096 8.57501C18.8096 8.80834 18.5846 8.95834 18.3346 8.95834ZM12.293 3.17501V5.00001C12.293 7.15001 12.8513 7.70834 15.0013 7.70834H16.8263L12.293 3.17501Z" />
<path d="M10.832 11.4583H5.83203C5.49036 11.4583 5.20703 11.175 5.20703 10.8333C5.20703 10.4917 5.49036 10.2083 5.83203 10.2083H10.832C11.1737 10.2083 11.457 10.4917 11.457 10.8333C11.457 11.175 11.1737 11.4583 10.832 11.4583Z" />
<path d="M9.16536 14.7917H5.83203C5.49036 14.7917 5.20703 14.5083 5.20703 14.1667C5.20703 13.825 5.49036 13.5417 5.83203 13.5417H9.16536C9.50703 13.5417 9.79036 13.825 9.79036 14.1667C9.79036 14.5083 9.50703 14.7917 9.16536 14.7917Z" />
</svg>
