<svg width="24" height="24" fill="none" xmlns="http://www.w3.org/2000/svg"><path d="M12 22.75c-.24 0-.48-.03-.71-.1-5.19-1.43-8.95-6.28-8.95-11.54V6.72c0-1.12.81-2.33 1.85-2.76l5.57-2.28a5.89 5.89 0 014.48 0l5.57 2.28c1.04.43 1.85 1.64 1.85 2.76v4.39c0 5.25-3.77 10.1-8.95 11.54-.23.07-.47.1-.71.1zm0-20a4.4 4.4 0 00-1.67.33L4.76 5.36c-.48.2-.92.85-.92 1.37v4.39c0 4.59 3.3 8.83 7.85 10.09.2.06.42.06.62 0 4.55-1.26 7.85-5.5 7.85-10.09V6.73c0-.52-.44-1.17-.92-1.37l-5.57-2.28A4.4 4.4 0 0012 2.75z" fill="#0057FF"/></svg>98 2.75006 10.8698 2.86007 10.3298 3.08007L4.75986 5.36004C4.27986 5.56004 3.83984 6.21004 3.83984 6.73004V11.1201C3.83984 15.7101 7.13985 19.9501 11.6898 21.2101C11.8898 21.2701 12.1098 21.2701 12.3098 21.2101C16.8598 19.9501 20.1599 15.7101 20.1599 11.1201V6.73004C20.1599 6.21004 19.7198 5.56004 19.2398 5.36004L13.6699 3.08007C13.1299 2.86007 12.5698 2.75006 11.9998 2.75006Z" fill="#0057FF"/>
</svg>
