<svg width="25" height="24" fill="none" xmlns="http://www.w3.org/2000/svg"><path d="M10.323 22.75c-.2 0-.36-.04-.48-.09-.4-.15-1.08-.64-1.08-2.19v-6.45h-2.34c-1.34 0-1.82-.63-1.99-1-.17-.38-.32-1.15.56-2.16l7.57-8.6c1.02-1.16 1.85-1.08 2.25-.93.4.15 1.08.64 1.08 2.19v6.45h2.34c1.34 0 1.82.63 1.99 1 .17.38.32 1.15-.56 2.16l-7.57 8.6c-.71.81-1.33 1.02-1.77 1.02zm3.94-20.01c-.03.04-.24.14-.57.52l-7.57 8.6c-.28.32-.32.52-.32.56.02.01.2.11.62.11h3.09c.41 0 .75.34.75.75v7.2c0 .5.09.72.13.78.03-.04.24-.14.57-.52l7.57-8.6c.28-.32.32-.52.32-.56-.02-.01-.2-.11-.62-.11h-3.09c-.41 0-.75-.34-.75-.75v-7.2c.01-.5-.09-.71-.13-.78z" fill="#5A5A5A"/></svg>7633 22.7496 10.3233 22.7496ZM14.2633 2.73964C14.2333 2.77964 14.0233 2.87964 13.6933 3.25964L6.12333 11.8596C5.84333 12.1796 5.80333 12.3796 5.80333 12.4196C5.82333 12.4296 6.00333 12.5296 6.42333 12.5296H9.51333C9.92333 12.5296 10.2633 12.8696 10.2633 13.2796V20.4796C10.2633 20.9796 10.3533 21.1996 10.3933 21.2596C10.4233 21.2196 10.6333 21.1196 10.9633 20.7396L18.5333 12.1396C18.8133 11.8196 18.8533 11.6196 18.8533 11.5796C18.8333 11.5696 18.6533 11.4696 18.2333 11.4696H15.1433C14.7333 11.4696 14.3933 11.1296 14.3933 10.7196V3.51964C14.4033 3.01964 14.3033 2.80964 14.2633 2.73964Z" fill="#5A5A5A"/>
</g>
</g>
</svg>
