<svg width="32" height="33" fill="none" xmlns="http://www.w3.org/2000/svg"><path d="M30 18.5v-2h-6v10h2v-4h3v-2h-3v-2h4zm-11 8h-4v-10h4a3.003 3.003 0 013 3v4a3.003 3.003 0 01-3 3zm-2-2h2a1.001 1.001 0 001-1v-4a1.001 1.001 0 00-1-1h-2v6zm-6-8H6v10h2v-3h3a2.003 2.003 0 002-2v-3a2.002 2.002 0 00-2-2zm-3 5v-3h3l.001 3H8z" fill="#0057FF"/><path d="M22 14.5v-4a.912.912 0 00-.3-.7l-7-7a.908.908 0 00-.7-.3H4a2.006 2.006 0 00-2 2v24a2 2 0 002 2h16v-2H4v-24h8v6a2.006 2.006 0 002 2h6v2h2zm-8-4V4.9l5.6 5.6H14z" fill="#0057FF"/></svg> 18.5003 19 18.5H17V24.5ZM11 16.5H6V26.5H8V23.5H11C11.5302 23.4992 12.0384 23.2882 12.4133 22.9133C12.7882 22.5384 12.9992 22.0302 13 21.5V18.5C12.9995 17.9697 12.7886 17.4613 12.4136 17.0864C12.0387 16.7114 11.5303 16.5005 11 16.5ZM8 21.5V18.5H11L11.001 21.5H8Z" fill="#0057FF"/>
<path d="M22 14.5V10.5C22.0035 10.3686 21.9785 10.2379 21.9268 10.1171C21.875 9.99624 21.7976 9.88806 21.7 9.79997L14.7 2.79997C14.612 2.70232 14.5038 2.62492 14.3829 2.57313C14.2621 2.52134 14.1314 2.49638 14 2.49997H4C3.47005 2.50156 2.96227 2.71278 2.58753 3.08751C2.2128 3.46224 2.00158 3.97003 2 4.49997V28.5C2 29.0304 2.21071 29.5391 2.58579 29.9142C2.96086 30.2893 3.46957 30.5 4 30.5H20V28.5H4V4.49997H12V10.5C12.0016 11.0299 12.2128 11.5377 12.5875 11.9124C12.9623 12.2872 13.4701 12.4984 14 12.5H20V14.5H22ZM14 10.5V4.89997L19.6 10.5H14Z" fill="#0057FF"/>
</svg>
