<svg width="24" height="24" fill="none" xmlns="http://www.w3.org/2000/svg"><path d="M18 10.75c-.41 0-.75-.34-.75-.75V8c0-3.15-.89-5.25-5.25-5.25S6.75 4.85 6.75 8v2c0 .41-.34.75-.75.75s-.75-.34-.75-.75V8c0-2.9.7-6.75 6.75-6.75S18.75 5.1 18.75 8v2c0 .41-.34.75-.75.75zm-6 8.5c-1.79 0-3.25-1.46-3.25-3.25s1.46-3.25 3.25-3.25 3.25 1.46 3.25 3.25-1.46 3.25-3.25 3.25zm0-5c-.96 0-1.75.79-1.75 1.75s.79 1.75 1.75 1.75 1.75-.79 1.75-1.75-.79-1.75-1.75-1.75z" fill="#0057FF" fill-opacity=".8"/><path d="M17 22.75H7c-4.41 0-5.75-1.34-5.75-5.75v-2c0-4.41 1.34-5.75 5.75-5.75h10c4.41 0 5.75 1.34 5.75 5.75v2c0 4.41-1.34 5.75-5.75 5.75zm-10-12c-3.58 0-4.25.68-4.25 4.25v2c0 3.57.67 4.25 4.25 4.25h10c3.58 0 4.25-.68 4.25-4.25v-2c0-3.57-.67-4.25-4.25-4.25H7z" fill="#0057FF" fill-opacity=".8"/></svg>25 10.59 2.59 9.25 7 9.25H17C21.41 9.25 22.75 10.59 22.75 15V17C22.75 21.41 21.41 22.75 17 22.75ZM7 10.75C3.42 10.75 2.75 11.43 2.75 15V17C2.75 20.57 3.42 21.25 7 21.25H17C20.58 21.25 21.25 20.57 21.25 17V15C21.25 11.43 20.58 10.75 17 10.75H7Z" fill="#0057FF" fill-opacity="0.8"/>
</svg>
