<svg width="24" height="24" viewBox="0 0 24 24" fill="none" xmlns="http://www.w3.org/2000/svg">
<g id="&#208;&#189;&#208;&#176;&#208;&#183;&#208;&#178;&#208;&#176;&#208;&#189;&#208;&#184;&#208;&#181;=close, &#209;&#128;&#208;&#176;&#208;&#183;&#208;&#188;&#208;&#181;&#209;&#128;=24&#195;&#151;24">
<path id="Vector" d="M16.7066 8.70757L13.4136 12.0006L16.7066 15.2936C16.8021 15.3858 16.8783 15.4962 16.9307 15.6182C16.9831 15.7402 17.0107 15.8714 17.0118 16.0042C17.013 16.1369 16.9877 16.2686 16.9374 16.3915C16.8871 16.5144 16.8129 16.6261 16.719 16.72C16.6251 16.8139 16.5134 16.8881 16.3905 16.9384C16.2676 16.9887 16.136 17.014 16.0032 17.0128C15.8704 17.0117 15.7392 16.9841 15.6172 16.9317C15.4952 16.8793 15.3848 16.8031 15.2926 16.7076L11.9996 13.4146L8.70659 16.7076C8.61435 16.8031 8.504 16.8793 8.382 16.9317C8.25999 16.9841 8.12877 17.0117 7.99599 17.0128C7.86321 17.014 7.73154 16.9887 7.60864 16.9384C7.48574 16.8881 7.37409 16.8139 7.2802 16.72C7.18631 16.6261 7.11205 16.5144 7.06177 16.3915C7.01149 16.2686 6.98619 16.1369 6.98734 16.0042C6.9885 15.8714 7.01608 15.7402 7.06849 15.6182C7.1209 15.4962 7.19708 15.3858 7.29259 15.2936L10.5856 12.0006L7.29259 8.70757C7.19708 8.61532 7.1209 8.50498 7.06849 8.38297C7.01608 8.26097 6.9885 8.12975 6.98734 7.99697C6.98619 7.86419 7.01149 7.73251 7.06177 7.60962C7.11205 7.48672 7.18631 7.37507 7.2802 7.28117C7.37409 7.18728 7.48574 7.11303 7.60864 7.06275C7.73154 7.01247 7.86321 6.98717 7.99599 6.98832C8.12877 6.98947 8.25999 7.01706 8.382 7.06947C8.504 7.12188 8.61435 7.19806 8.70659 7.29357L11.9996 10.5866L15.2926 7.29357C15.3848 7.19806 15.4952 7.12188 15.6172 7.06947C15.7392 7.01706 15.8704 6.98947 16.0032 6.98832C16.136 6.98717 16.2676 7.01247 16.3905 7.06275C16.5134 7.11303 16.6251 7.18728 16.719 7.28117C16.8129 7.37507 16.8871 7.48672 16.9374 7.60962C16.9877 7.73251 17.013 7.86419 17.0118 7.99697C17.0107 8.12975 16.9831 8.26097 16.9307 8.38297C16.8783 8.50498 16.8021 8.61532 16.7066 8.70757Z" fill="#5A5A5A"/>
</g>
</svg>
