<svg width="24" height="24" fill="none" xmlns="http://www.w3.org/2000/svg"><g fill="#1C1C1C"><path d="M16 22.75H8c-3.65 0-5.75-2.1-5.75-5.75V7c0-3.65 2.1-5.75 5.75-5.75h8c3.65 0 5.75 2.1 5.75 5.75v10c0 3.65-2.1 5.75-5.75 5.75zm-8-20C5.14 2.75 3.75 4.14 3.75 7v10c0 2.86 1.39 4.25 4.25 4.25h8c2.86 0 4.25-1.39 4.25-4.25V7c0-2.86-1.39-4.25-4.25-4.25H8z"/><path d="M18.5 9.25h-2c-1.52 0-2.75-1.23-2.75-2.75v-2c0-.41.34-.75.75-.75s.75.34.75.75v2c0 .69.56 1.25 1.25 1.25h2c.41 0 .75.34.75.75s-.34.75-.75.75zm-6.5 4.5H8c-.41 0-.75-.34-.75-.75s.34-.75.75-.75h4c.41 0 .75.34.75.75s-.34.75-.75.75zm4 4H8c-.41 0-.75-.34-.75-.75s.34-.75.75-.75h8c.41 0 .75.34.75.75s-.34.75-.75.75z"/></g></svg> 8.5C19.25 8.91 18.91 9.25 18.5 9.25Z" fill="#1C1C1C"/>
<path id="Vector_3" d="M12 13.75H8C7.59 13.75 7.25 13.41 7.25 13C7.25 12.59 7.59 12.25 8 12.25H12C12.41 12.25 12.75 12.59 12.75 13C12.75 13.41 12.41 13.75 12 13.75Z" fill="#1C1C1C"/>
<path id="Vector_4" d="M16 17.75H8C7.59 17.75 7.25 17.41 7.25 17C7.25 16.59 7.59 16.25 8 16.25H16C16.41 16.25 16.75 16.59 16.75 17C16.75 17.41 16.41 17.75 16 17.75Z" fill="#1C1C1C"/>
</g>
</g>
</svg>
