<svg width="20" height="20" viewBox="0 0 20 20" xmlns="http://www.w3.org/2000/svg">
<g id="vuesax/outline/printer">
<g id="printer">
<path id="Vector" d="M13.9596 6.45832H6.04297C5.7013 6.45832 5.41797 6.17499 5.41797 5.83332V4.16666C5.41797 2.03332 6.40964 1.04166 8.54297 1.04166H11.4596C13.593 1.04166 14.5846 2.03332 14.5846 4.16666V5.83332C14.5846 6.17499 14.3013 6.45832 13.9596 6.45832ZM6.66797 5.20832H13.3346V4.16666C13.3346 2.74999 12.8763 2.29166 11.4596 2.29166H8.54297C7.1263 2.29166 6.66797 2.74999 6.66797 4.16666V5.20832Z"/>
<path id="Vector_2" d="M10.8346 18.9583H9.16797C7.1513 18.9583 6.04297 17.85 6.04297 15.8333V12.5C6.04297 12.1583 6.3263 11.875 6.66797 11.875H13.3346C13.6763 11.875 13.9596 12.1583 13.9596 12.5V15.8333C13.9596 17.85 12.8513 18.9583 10.8346 18.9583ZM7.29297 13.125V15.8333C7.29297 17.15 7.8513 17.7083 9.16797 17.7083H10.8346C12.1513 17.7083 12.7096 17.15 12.7096 15.8333V13.125H7.29297Z"/>
<path id="Vector_3" d="M15 15.625H13.3333C12.9917 15.625 12.7083 15.3417 12.7083 15V13.125H7.29167V15C7.29167 15.3417 7.00833 15.625 6.66667 15.625H5C2.98333 15.625 1.875 14.5167 1.875 12.5V8.33334C1.875 6.31668 2.98333 5.20834 5 5.20834H15C17.0167 5.20834 18.125 6.31668 18.125 8.33334V12.5C18.125 14.5167 17.0167 15.625 15 15.625ZM13.9583 14.375H15C16.3167 14.375 16.875 13.8167 16.875 12.5V8.33334C16.875 7.01668 16.3167 6.45834 15 6.45834H5C3.68333 6.45834 3.125 7.01668 3.125 8.33334V12.5C3.125 13.8167 3.68333 14.375 5 14.375H6.04167V12.5C6.04167 12.1583 6.325 11.875 6.66667 11.875H13.3333C13.675 11.875 13.9583 12.1583 13.9583 12.5V14.375Z"/>
<path id="Vector_4" d="M14.1654 13.125H5.83203C5.49036 13.125 5.20703 12.8417 5.20703 12.5C5.20703 12.1583 5.49036 11.875 5.83203 11.875H14.1654C14.507 11.875 14.7904 12.1583 14.7904 12.5C14.7904 12.8417 14.507 13.125 14.1654 13.125Z"/>
<path id="Vector_5" d="M8.33203 9.79166H5.83203C5.49036 9.79166 5.20703 9.50832 5.20703 9.16666C5.20703 8.82499 5.49036 8.54166 5.83203 8.54166H8.33203C8.6737 8.54166 8.95703 8.82499 8.95703 9.16666C8.95703 9.50832 8.6737 9.79166 8.33203 9.79166Z"/>
</g>
</g>
</svg>
