<svg width="138" height="41" viewBox="0 0 138 41" fill="none" xmlns="http://www.w3.org/2000/svg">
<g id="Group">
<g id="&#208;&#183;&#208;&#176;&#208;&#178;&#208;&#190;&#208;&#180; &#208;&#179;&#208;&#181;&#208;&#189;&#208;&#181;&#209;&#128;&#208;&#176;&#209;&#130;&#208;&#190;&#209;&#128;&#208;&#190;&#208;&#178;">
<path d="M6.068 33.6124C6.57104 33.7702 6.9212 34.0168 7.11847 34.3522C7.31574 34.6876 7.41438 35.087 7.41438 35.5506C7.40452 35.9649 7.30588 36.32 7.11847 36.6159C6.94093 36.9118 6.7042 37.1535 6.40829 37.3409C6.11238 37.5283 5.77702 37.6664 5.4022 37.7552C5.02738 37.8439 4.6427 37.8883 4.24816 37.8883C3.87334 37.8883 3.49359 37.8538 3.10891 37.7847C2.73409 37.7157 2.3938 37.5973 2.08803 37.4297C1.78225 37.262 1.5258 37.04 1.31866 36.7639C1.12139 36.4877 1.01289 36.1375 0.993164 35.7134H2.22118C2.26064 35.9205 2.35434 36.0931 2.5023 36.2312C2.65025 36.3594 2.82287 36.4679 3.02014 36.5567C3.22727 36.6356 3.43934 36.6948 3.65634 36.7343C3.8832 36.7639 4.08541 36.7787 4.26295 36.7787C4.47009 36.7787 4.68216 36.7639 4.89916 36.7343C5.12602 36.7047 5.33316 36.6455 5.52057 36.5567C5.70797 36.4679 5.86086 36.3447 5.97922 36.1868C6.09759 36.0192 6.15677 35.8071 6.15677 35.5506C6.15677 35.3435 6.11238 35.1561 6.02361 34.9884C5.93484 34.8109 5.79675 34.6777 5.60934 34.5889C5.44166 34.51 5.24932 34.4656 5.03232 34.4558C4.81532 34.436 4.61311 34.4262 4.4257 34.4262H3.03493V33.3165H4.17418C4.36159 33.3165 4.55393 33.3017 4.7512 33.2721C4.94848 33.2327 5.12602 33.1686 5.28384 33.0798C5.45152 32.991 5.58468 32.8776 5.68331 32.7395C5.79181 32.5915 5.851 32.3844 5.86086 32.1181C5.86086 31.911 5.81154 31.7383 5.71291 31.6003C5.62413 31.4622 5.50084 31.3537 5.34302 31.2748C5.19507 31.186 5.02245 31.1268 4.82518 31.0972C4.63777 31.0578 4.45036 31.038 4.26295 31.038C4.08541 31.038 3.898 31.0528 3.70073 31.0824C3.50346 31.1021 3.32098 31.1515 3.1533 31.2304C2.98562 31.2994 2.84259 31.398 2.72423 31.5263C2.60587 31.6545 2.53189 31.8222 2.5023 32.0293H1.25948C1.26935 31.6348 1.36305 31.3043 1.54059 31.038C1.728 30.7618 1.96473 30.5448 2.25078 30.387C2.53682 30.2193 2.85246 30.101 3.19768 30.0319C3.55277 29.953 3.90293 29.9136 4.24816 29.9136C4.59339 29.9136 4.93368 29.9481 5.26904 30.0171C5.61427 30.0862 5.92004 30.2046 6.18636 30.3722C6.45268 30.5301 6.66968 30.7421 6.83736 31.0084C7.00504 31.2748 7.08888 31.6052 7.08888 31.9997C7.08888 32.3548 7.00504 32.6705 6.83736 32.9466C6.66968 33.2228 6.41322 33.4448 6.068 33.6124Z" fill="#5A5A5A"/>
<path d="M14.171 36.8082C14.0034 37.0351 13.811 37.2176 13.594 37.3557C13.377 37.4938 13.1502 37.6023 12.9134 37.6812C12.6866 37.7601 12.4548 37.8143 12.218 37.8439C11.9912 37.8735 11.7643 37.8883 11.5375 37.8883C11.1725 37.8883 10.8273 37.8439 10.5018 37.7552C10.1763 37.6664 9.88036 37.5234 9.61404 37.3261C9.35759 37.1288 9.15045 36.8822 8.99264 36.5863C8.84468 36.2904 8.7707 35.955 8.7707 35.5802C8.7707 35.1364 8.84961 34.7665 9.00743 34.4706C9.17511 34.1648 9.39705 33.9182 9.67323 33.7308C9.94941 33.5434 10.265 33.4152 10.6201 33.3461C10.9851 33.2672 11.3698 33.2278 11.7742 33.2278H14.0675C14.0675 32.5669 13.9244 32.0441 13.6384 31.6594C13.3524 31.2649 12.869 31.0578 12.1884 31.038C11.7742 31.038 11.4092 31.1071 11.0936 31.2452C10.778 31.3833 10.561 31.6101 10.4426 31.9258H9.0962C9.16525 31.5707 9.30334 31.2698 9.51048 31.0232C9.71761 30.7668 9.9642 30.5596 10.2502 30.4018C10.5363 30.2341 10.847 30.1108 11.1824 30.0319C11.5177 29.953 11.8531 29.9136 12.1884 29.9136C12.7704 29.9136 13.2587 30.0122 13.6532 30.2095C14.0576 30.3969 14.3831 30.6484 14.6297 30.9641C14.8763 31.2698 15.0489 31.6446 15.1475 32.0885C15.2462 32.5324 15.2955 33.0305 15.2955 33.5828V37.7995H14.245L14.171 36.8082ZM12.6915 34.2782C12.4548 34.2782 12.1786 34.2832 11.863 34.293C11.5572 34.293 11.2613 34.3226 10.9752 34.3818C10.6892 34.441 10.4574 34.5643 10.2798 34.7517C10.1122 34.9391 10.0283 35.1857 10.0283 35.4915C10.0283 35.7183 10.0727 35.9107 10.1615 36.0685C10.2502 36.2263 10.3686 36.3594 10.5166 36.4679C10.6744 36.5764 10.8519 36.6554 11.0492 36.7047C11.2465 36.754 11.4487 36.7787 11.6558 36.7787C12.3956 36.7787 12.9775 36.6011 13.4017 36.246C13.8357 35.8811 14.0576 35.3534 14.0675 34.6629V34.2782H12.6915Z" fill="#5A5A5A"/>
<path d="M17.2439 30.0023H20.2621C20.7652 30.0023 21.1942 30.0369 21.5493 30.1059C21.9143 30.175 22.2201 30.2983 22.4667 30.4758C22.6836 30.6238 22.8513 30.821 22.9697 31.0676C23.0979 31.3142 23.162 31.6052 23.162 31.9405C23.162 32.7198 22.8119 33.2771 22.1116 33.6124C22.6442 33.7308 23.0289 33.9626 23.2656 34.3078C23.5023 34.653 23.6207 35.0476 23.6207 35.4915C23.6108 35.9057 23.5418 36.246 23.4136 36.5123C23.2853 36.7688 23.1029 36.9957 22.8661 37.1929C22.6393 37.3803 22.3581 37.5283 22.0228 37.6368C21.6874 37.7453 21.3077 37.7995 20.8835 37.7995H17.2439V30.0023ZM18.5311 31.112V33.3313H19.6111C19.8577 33.3313 20.1092 33.3264 20.3657 33.3165C20.6222 33.2968 20.849 33.2524 21.0463 33.1834C21.2929 33.1045 21.5 32.9762 21.6677 32.7987C21.8354 32.6211 21.9241 32.4091 21.934 32.1625C21.934 31.8764 21.8699 31.6693 21.7417 31.5411C21.6233 31.403 21.4754 31.3043 21.2978 31.2452C21.1203 31.1761 20.9279 31.1367 20.7208 31.1268C20.5137 31.1169 20.3213 31.112 20.1438 31.112H18.5311ZM18.5311 36.7047H20.5876C20.8145 36.7047 21.0315 36.6899 21.2386 36.6603C21.4556 36.6307 21.643 36.5764 21.8009 36.4975C21.9587 36.4088 22.0869 36.2904 22.1855 36.1425C22.2842 35.9945 22.3384 35.8071 22.3483 35.5802C22.3483 35.2843 22.2792 35.0525 22.1412 34.8848C22.0031 34.7073 21.8156 34.5791 21.5789 34.5002C21.3817 34.441 21.1597 34.4065 20.9131 34.3966C20.6665 34.3867 20.4101 34.3818 20.1438 34.3818L18.5311 34.3966V36.7047Z" fill="#5A5A5A"/>
<path d="M28.7677 29.9136C29.3891 29.9136 29.9266 30.0122 30.3804 30.2095C30.8341 30.4068 31.2138 30.6829 31.5196 31.038C31.8352 31.3931 32.067 31.8173 32.215 32.3104C32.3728 32.7938 32.4517 33.3264 32.4517 33.9083C32.4517 34.4903 32.3728 35.0279 32.215 35.521C32.067 36.0044 31.8352 36.4236 31.5196 36.7787C31.2138 37.1239 30.8291 37.3951 30.3656 37.5924C29.902 37.7897 29.3595 37.8883 28.7381 37.8883C28.1167 37.8883 27.5742 37.7897 27.1106 37.5924C26.6568 37.3951 26.2722 37.1239 25.9565 36.7787C25.6507 36.4236 25.419 36.0044 25.2611 35.521C25.1132 35.0279 25.0392 34.4903 25.0392 33.9083C25.0392 33.3264 25.1132 32.7938 25.2611 32.3104C25.419 31.8173 25.6507 31.3931 25.9565 31.038C26.2722 30.6829 26.6618 30.4068 27.1254 30.2095C27.5889 30.0122 28.1364 29.9136 28.7677 29.9136ZM28.7381 36.7787C29.1622 36.7787 29.5271 36.7047 29.8329 36.5567C30.1486 36.4088 30.405 36.2066 30.6023 35.9501C30.8094 35.6838 30.9574 35.378 31.0461 35.0328C31.1448 34.6876 31.1941 34.3127 31.1941 33.9083C31.1941 33.5138 31.1448 33.1439 31.0461 32.7987C30.9574 32.4436 30.8094 32.1378 30.6023 31.8814C30.405 31.615 30.1486 31.4079 29.8329 31.26C29.5271 31.112 29.1622 31.038 28.7381 31.038C28.3139 31.038 27.949 31.112 27.6432 31.26C27.3374 31.4079 27.081 31.615 26.8738 31.8814C26.6766 32.1378 26.5286 32.4436 26.43 32.7987C26.3412 33.1439 26.2968 33.5138 26.2968 33.9083C26.2968 34.3127 26.3412 34.6876 26.43 35.0328C26.5286 35.378 26.6766 35.6838 26.8738 35.9501C27.081 36.2066 27.3374 36.4088 27.6432 36.5567C27.949 36.7047 28.3139 36.7787 28.7381 36.7787Z" fill="#5A5A5A"/>
<path d="M34.8487 31.7186C34.8586 31.4326 34.8635 31.1465 34.8635 30.8605C34.8635 30.5744 34.8635 30.2884 34.8635 30.0023H40.397V36.7047H41.4179V40.1964H40.2046V37.7995H34.5084V40.1964H33.2952V36.7047C33.6897 36.7047 34.0004 36.5271 34.2273 36.172C34.3654 35.9748 34.4739 35.6937 34.5528 35.3287C34.6317 34.9539 34.6909 34.5593 34.7303 34.1451C34.7796 33.6913 34.8092 33.2425 34.8191 32.7987C34.8388 32.345 34.8487 31.9849 34.8487 31.7186ZM39.1394 31.112H36.0619C36.0521 31.5263 36.0422 31.9899 36.0323 32.5028C36.0225 33.0157 36.0027 33.4941 35.9731 33.9379C35.9633 34.1352 35.9485 34.3522 35.9288 34.5889C35.909 34.8158 35.8745 35.0525 35.8252 35.2991C35.7857 35.5358 35.7216 35.7775 35.6328 36.0241C35.5539 36.2707 35.4405 36.4975 35.2926 36.7047H39.1394V31.112Z" fill="#5A5A5A"/>
<path d="M48.2589 37.7995V30.0023H53.6445V31.112H49.5165V37.7995H48.2589Z" fill="#5A5A5A"/>
<path d="M55.8096 34.367C55.8391 34.7122 55.9082 35.0328 56.0167 35.3287C56.1351 35.6147 56.2929 35.8663 56.4901 36.0833C56.6874 36.3003 56.9291 36.4729 57.2151 36.6011C57.511 36.7195 57.8513 36.7787 58.236 36.7787C58.4234 36.7787 58.6158 36.7639 58.813 36.7343C59.0202 36.6948 59.2125 36.6356 59.39 36.5567C59.5676 36.4679 59.7254 36.3545 59.8635 36.2164C60.0016 36.0783 60.1052 35.9107 60.1742 35.7134H61.4614C61.3726 36.0882 61.2198 36.4137 61.0028 36.6899C60.7956 36.9661 60.5441 37.1929 60.2482 37.3705C59.9621 37.548 59.6416 37.6812 59.2865 37.7699C58.9314 37.8489 58.5714 37.8883 58.2064 37.8883C57.585 37.8883 57.0425 37.7897 56.5789 37.5924C56.1252 37.3951 55.7454 37.1239 55.4397 36.7787C55.1339 36.4236 54.907 36.0044 54.7591 35.521C54.6111 35.0279 54.5372 34.4903 54.5372 33.9083C54.5372 33.3264 54.6161 32.7938 54.7739 32.3104C54.9416 31.8173 55.1783 31.3931 55.4841 31.038C55.7898 30.6829 56.1646 30.4068 56.6085 30.2095C57.0524 30.0122 57.5801 29.9136 58.1916 29.9136C58.813 29.9136 59.3506 30.0369 59.8043 30.2835C60.258 30.5301 60.623 30.8556 60.8992 31.26C61.1754 31.6545 61.3677 32.0836 61.4762 32.5472C61.5946 33.0108 61.6439 33.4398 61.6242 33.8344C61.6242 33.9231 61.6192 34.0119 61.6094 34.1007C61.6094 34.1895 61.6044 34.2782 61.5946 34.367H55.8096ZM60.3518 33.2721C60.332 32.6113 60.1249 32.0737 59.7303 31.6594C59.3358 31.2452 58.8081 31.038 58.1472 31.038C57.7823 31.038 57.4617 31.0972 57.1855 31.2156C56.9093 31.3339 56.6776 31.4967 56.4901 31.7038C56.3027 31.911 56.1548 32.1526 56.0463 32.4288C55.9378 32.6951 55.8687 32.9762 55.8391 33.2721H60.3518Z" fill="#5A5A5A"/>
<path d="M63.3144 37.7995V30.0023H64.572V33.4201H68.478V30.0023H69.7356V37.7995H68.478V34.5297H64.572V37.7995H63.3144Z" fill="#5A5A5A"/>
<path d="M72.7 34.367C72.7296 34.7122 72.7987 35.0328 72.9072 35.3287C73.0255 35.6147 73.1834 35.8663 73.3806 36.0833C73.5779 36.3003 73.8196 36.4729 74.1056 36.6011C74.4015 36.7195 74.7418 36.7787 75.1265 36.7787C75.3139 36.7787 75.5062 36.7639 75.7035 36.7343C75.9106 36.6948 76.103 36.6356 76.2805 36.5567C76.4581 36.4679 76.6159 36.3545 76.754 36.2164C76.8921 36.0783 76.9956 35.9107 77.0647 35.7134H78.3519C78.2631 36.0882 78.1102 36.4137 77.8932 36.6899C77.6861 36.9661 77.4346 37.1929 77.1387 37.3705C76.8526 37.548 76.5321 37.6812 76.177 37.7699C75.8219 37.8489 75.4619 37.8883 75.0969 37.8883C74.4755 37.8883 73.933 37.7897 73.4694 37.5924C73.0157 37.3951 72.6359 37.1239 72.3302 36.7787C72.0244 36.4236 71.7975 36.0044 71.6496 35.521C71.5016 35.0279 71.4276 34.4903 71.4276 33.9083C71.4276 33.3264 71.5065 32.7938 71.6644 32.3104C71.832 31.8173 72.0688 31.3931 72.3745 31.038C72.6803 30.6829 73.0551 30.4068 73.499 30.2095C73.9429 30.0122 74.4706 29.9136 75.0821 29.9136C75.7035 29.9136 76.2411 30.0369 76.6948 30.2835C77.1485 30.5301 77.5135 30.8556 77.7897 31.26C78.0658 31.6545 78.2582 32.0836 78.3667 32.5472C78.485 33.0108 78.5344 33.4398 78.5146 33.8344C78.5146 33.9231 78.5097 34.0119 78.4998 34.1007C78.4998 34.1895 78.4949 34.2782 78.4851 34.367H72.7ZM77.2422 33.2721C77.2225 32.6113 77.0154 32.0737 76.6208 31.6594C76.2263 31.2452 75.6986 31.038 75.0377 31.038C74.6728 31.038 74.3522 31.0972 74.076 31.2156C73.7998 31.3339 73.568 31.4967 73.3806 31.7038C73.1932 31.911 73.0453 32.1526 72.9368 32.4288C72.8283 32.6951 72.7592 32.9762 72.7296 33.2721H77.2422Z" fill="#5A5A5A"/>
<path d="M81.4625 40.6107H80.2049V30.0023H81.4033L81.4625 31.2008C81.7288 30.7766 82.0889 30.461 82.5426 30.2539C83.0062 30.0369 83.5043 29.9234 84.0369 29.9136C84.6386 29.9136 85.1466 30.0171 85.5608 30.2243C85.985 30.4216 86.3351 30.7027 86.6113 31.0676C86.8974 31.4227 87.1094 31.8468 87.2475 32.34C87.3856 32.8233 87.4547 33.3461 87.4547 33.9083C87.4547 34.4804 87.3856 35.0081 87.2475 35.4915C87.1094 35.9748 86.8974 36.394 86.6113 36.7491C86.3253 37.1042 85.9653 37.3853 85.5313 37.5924C85.0973 37.7897 84.5794 37.8883 83.9777 37.8883C83.3859 37.8883 82.8829 37.7946 82.4686 37.6072C82.0543 37.4198 81.719 37.1732 81.4625 36.8674V40.6107ZM83.8742 36.7787C84.2983 36.7787 84.6534 36.7047 84.9394 36.5567C85.2354 36.3989 85.4721 36.1918 85.6496 35.9353C85.837 35.669 85.9702 35.3632 86.0491 35.018C86.1379 34.6728 86.1872 34.3029 86.1971 33.9083C86.1971 33.5138 86.1527 33.1439 86.0639 32.7987C85.985 32.4436 85.8518 32.1378 85.6644 31.8814C85.477 31.6249 85.2304 31.4227 84.9247 31.2748C84.6287 31.1169 84.2687 31.038 83.8446 31.038C83.3415 31.038 82.9075 31.1761 82.5426 31.4523C82.1776 31.7186 81.9015 32.0589 81.714 32.4732C81.6055 32.7 81.5316 32.9368 81.4921 33.1834C81.4526 33.4201 81.4329 33.6667 81.4329 33.9231C81.4329 34.219 81.4526 34.4952 81.4921 34.7517C81.5316 34.9983 81.6055 35.235 81.714 35.4619C81.9015 35.8367 82.1727 36.1523 82.5278 36.4088C82.8927 36.6554 83.3415 36.7787 83.8742 36.7787Z" fill="#5A5A5A"/>
<path d="M94.2104 36.8082C94.0427 37.0351 93.8504 37.2176 93.6334 37.3557C93.4164 37.4938 93.1895 37.6023 92.9528 37.6812C92.7259 37.7601 92.4941 37.8143 92.2574 37.8439C92.0305 37.8735 91.8037 37.8883 91.5768 37.8883C91.2119 37.8883 90.8666 37.8439 90.5411 37.7552C90.2156 37.6664 89.9197 37.5234 89.6534 37.3261C89.397 37.1288 89.1898 36.8822 89.032 36.5863C88.884 36.2904 88.8101 35.955 88.8101 35.5802C88.8101 35.1364 88.889 34.7665 89.0468 34.4706C89.2145 34.1648 89.4364 33.9182 89.7126 33.7308C89.9888 33.5434 90.3044 33.4152 90.6595 33.3461C91.0244 33.2672 91.4091 33.2278 91.8135 33.2278H94.1068C94.1068 32.5669 93.9638 32.0441 93.6778 31.6594C93.3917 31.2649 92.9084 31.0578 92.2278 31.038C91.8135 31.038 91.4486 31.1071 91.1329 31.2452C90.8173 31.3833 90.6003 31.6101 90.4819 31.9258H89.1356C89.2046 31.5707 89.3427 31.2698 89.5498 31.0232C89.757 30.7668 90.0036 30.5596 90.2896 30.4018C90.5757 30.2341 90.8864 30.1108 91.2217 30.0319C91.5571 29.953 91.8924 29.9136 92.2278 29.9136C92.8098 29.9136 93.298 30.0122 93.6926 30.2095C94.097 30.3969 94.4225 30.6484 94.6691 30.9641C94.9156 31.2698 95.0883 31.6446 95.1869 32.0885C95.2855 32.5324 95.3348 33.0305 95.3348 33.5828V37.7995H94.2844L94.2104 36.8082ZM92.7309 34.2782C92.4941 34.2782 92.2179 34.2832 91.9023 34.293C91.5965 34.293 91.3006 34.3226 91.0146 34.3818C90.7285 34.441 90.4967 34.5643 90.3192 34.7517C90.1515 34.9391 90.0677 35.1857 90.0677 35.4915C90.0677 35.7183 90.1121 35.9107 90.2008 36.0685C90.2896 36.2263 90.408 36.3594 90.5559 36.4679C90.7137 36.5764 90.8913 36.6554 91.0886 36.7047C91.2858 36.754 91.488 36.7787 91.6952 36.7787C92.435 36.7787 93.0169 36.6011 93.441 36.246C93.875 35.8811 94.097 35.3534 94.1068 34.6629V34.2782H92.7309Z" fill="#5A5A5A"/>
<path d="M103.039 30.0023V31.112H100.361V37.7995H99.1031V31.112H96.4251V30.0023H103.039Z" fill="#5A5A5A"/>
<path d="M107.593 29.9136C108.215 29.9136 108.752 30.0122 109.206 30.2095C109.66 30.4068 110.039 30.6829 110.345 31.038C110.661 31.3931 110.893 31.8173 111.041 32.3104C111.198 32.7938 111.277 33.3264 111.277 33.9083C111.277 34.4903 111.198 35.0279 111.041 35.521C110.893 36.0044 110.661 36.4236 110.345 36.7787C110.039 37.1239 109.655 37.3951 109.191 37.5924C108.728 37.7897 108.185 37.8883 107.564 37.8883C106.942 37.8883 106.4 37.7897 105.936 37.5924C105.483 37.3951 105.098 37.1239 104.782 36.7787C104.476 36.4236 104.245 36.0044 104.087 35.521C103.939 35.0279 103.865 34.4903 103.865 33.9083C103.865 33.3264 103.939 32.7938 104.087 32.3104C104.245 31.8173 104.476 31.3931 104.782 31.038C105.098 30.6829 105.487 30.4068 105.951 30.2095C106.415 30.0122 106.962 29.9136 107.593 29.9136ZM107.564 36.7787C107.988 36.7787 108.353 36.7047 108.659 36.5567C108.974 36.4088 109.231 36.2066 109.428 35.9501C109.635 35.6838 109.783 35.378 109.872 35.0328C109.97 34.6876 110.02 34.3127 110.02 33.9083C110.02 33.5138 109.97 33.1439 109.872 32.7987C109.783 32.4436 109.635 32.1378 109.428 31.8814C109.231 31.615 108.974 31.4079 108.659 31.26C108.353 31.112 107.988 31.038 107.564 31.038C107.14 31.038 106.775 31.112 106.469 31.26C106.163 31.4079 105.907 31.615 105.7 31.8814C105.502 32.1378 105.354 32.4436 105.256 32.7987C105.167 33.1439 105.122 33.5138 105.122 33.9083C105.122 34.3127 105.167 34.6876 105.256 35.0328C105.354 35.378 105.502 35.6838 105.7 35.9501C105.907 36.2066 106.163 36.4088 106.469 36.5567C106.775 36.7047 107.14 36.7787 107.564 36.7787Z" fill="#5A5A5A"/>
<path d="M114.218 40.6107H112.96V30.0023H114.158L114.218 31.2008C114.484 30.7766 114.844 30.461 115.298 30.2539C115.761 30.0369 116.259 29.9234 116.792 29.9136C117.394 29.9136 117.902 30.0171 118.316 30.2243C118.74 30.4216 119.09 30.7027 119.366 31.0676C119.652 31.4227 119.865 31.8468 120.003 32.34C120.141 32.8233 120.21 33.3461 120.21 33.9083C120.21 34.4804 120.141 35.0081 120.003 35.4915C119.865 35.9748 119.652 36.394 119.366 36.7491C119.08 37.1042 118.72 37.3853 118.286 37.5924C117.852 37.7897 117.335 37.8883 116.733 37.8883C116.141 37.8883 115.638 37.7946 115.224 37.6072C114.809 37.4198 114.474 37.1732 114.218 36.8674V40.6107ZM116.629 36.7787C117.053 36.7787 117.409 36.7047 117.695 36.5567C117.99 36.3989 118.227 36.1918 118.405 35.9353C118.592 35.669 118.725 35.3632 118.804 35.018C118.893 34.6728 118.942 34.3029 118.952 33.9083C118.952 33.5138 118.908 33.1439 118.819 32.7987C118.74 32.4436 118.607 32.1378 118.42 31.8814C118.232 31.6249 117.986 31.4227 117.68 31.2748C117.384 31.1169 117.024 31.038 116.6 31.038C116.097 31.038 115.663 31.1761 115.298 31.4523C114.933 31.7186 114.657 32.0589 114.469 32.4732C114.361 32.7 114.287 32.9368 114.247 33.1834C114.208 33.4201 114.188 33.6667 114.188 33.9231C114.188 34.219 114.208 34.4952 114.247 34.7517C114.287 34.9983 114.361 35.235 114.469 35.4619C114.657 35.8367 114.928 36.1523 115.283 36.4088C115.648 36.6554 116.097 36.7787 116.629 36.7787Z" fill="#5A5A5A"/>
<path d="M125.264 29.9136C125.885 29.9136 126.423 30.0122 126.877 30.2095C127.33 30.4068 127.71 30.6829 128.016 31.038C128.332 31.3931 128.563 31.8173 128.711 32.3104C128.869 32.7938 128.948 33.3264 128.948 33.9083C128.948 34.4903 128.869 35.0279 128.711 35.521C128.563 36.0044 128.332 36.4236 128.016 36.7787C127.71 37.1239 127.326 37.3951 126.862 37.5924C126.398 37.7897 125.856 37.8883 125.234 37.8883C124.613 37.8883 124.071 37.7897 123.607 37.5924C123.153 37.3951 122.769 37.1239 122.453 36.7787C122.147 36.4236 121.915 36.0044 121.758 35.521C121.61 35.0279 121.536 34.4903 121.536 33.9083C121.536 33.3264 121.61 32.7938 121.758 32.3104C121.915 31.8173 122.147 31.3931 122.453 31.038C122.769 30.6829 123.158 30.4068 123.622 30.2095C124.085 30.0122 124.633 29.9136 125.264 29.9136ZM125.234 36.7787C125.659 36.7787 126.024 36.7047 126.329 36.5567C126.645 36.4088 126.901 36.2066 127.099 35.9501C127.306 35.6838 127.454 35.378 127.543 35.0328C127.641 34.6876 127.69 34.3127 127.69 33.9083C127.69 33.5138 127.641 33.1439 127.543 32.7987C127.454 32.4436 127.306 32.1378 127.099 31.8814C126.901 31.615 126.645 31.4079 126.329 31.26C126.024 31.112 125.659 31.038 125.234 31.038C124.81 31.038 124.445 31.112 124.14 31.26C123.834 31.4079 123.577 31.615 123.37 31.8814C123.173 32.1378 123.025 32.4436 122.926 32.7987C122.838 33.1439 122.793 33.5138 122.793 33.9083C122.793 34.3127 122.838 34.6876 122.926 35.0328C123.025 35.378 123.173 35.6838 123.37 35.9501C123.577 36.2066 123.834 36.4088 124.14 36.5567C124.445 36.7047 124.81 36.7787 125.234 36.7787Z" fill="#5A5A5A"/>
<path d="M130.631 30.0023H133.649C134.152 30.0023 134.581 30.0369 134.936 30.1059C135.301 30.175 135.607 30.2983 135.854 30.4758C136.071 30.6238 136.238 30.821 136.357 31.0676C136.485 31.3142 136.549 31.6052 136.549 31.9405C136.549 32.7198 136.199 33.2771 135.498 33.6124C136.031 33.7308 136.416 33.9626 136.652 34.3078C136.889 34.653 137.008 35.0476 137.008 35.4915C136.998 35.9057 136.929 36.246 136.8 36.5123C136.672 36.7688 136.49 36.9957 136.253 37.1929C136.026 37.3803 135.745 37.5283 135.41 37.6368C135.074 37.7453 134.695 37.7995 134.27 37.7995H130.631V30.0023ZM131.918 31.112V33.3313H132.998C133.245 33.3313 133.496 33.3264 133.753 33.3165C134.009 33.2968 134.236 33.2524 134.433 33.1834C134.68 33.1045 134.887 32.9762 135.055 32.7987C135.222 32.6211 135.311 32.4091 135.321 32.1625C135.321 31.8764 135.257 31.6693 135.129 31.5411C135.01 31.403 134.862 31.3043 134.685 31.2452C134.507 31.1761 134.315 31.1367 134.108 31.1268C133.901 31.1169 133.708 31.112 133.531 31.112H131.918ZM131.918 36.7047H133.974C134.201 36.7047 134.418 36.6899 134.626 36.6603C134.842 36.6307 135.03 36.5764 135.188 36.4975C135.346 36.4088 135.474 36.2904 135.572 36.1425C135.671 35.9945 135.725 35.8071 135.735 35.5802C135.735 35.2843 135.666 35.0525 135.528 34.8848C135.39 34.7073 135.203 34.5791 134.966 34.5002C134.769 34.441 134.547 34.4065 134.3 34.3966C134.053 34.3867 133.797 34.3818 133.531 34.3818L131.918 34.3966V36.7047Z" fill="#5A5A5A"/>
</g>
<g id="ENERGEN">
<path d="M5.39519 12.814V15.7934H13.517V20.624H0V0.376033H13.2849V5.11984H5.39519V8.15703H12.6758V12.814H5.39519Z" fill="black"/>
<path d="M29.5895 5.9876V0.376033H34.9847V20.624H30.8078L23.4111 10.5L23.4981 15.7066V20.624H18.1029V0.376033H22.2219L29.6765 10.5579L29.5895 5.9876Z" fill="black"/>
<path d="M45.6235 12.814V15.7934H53.7453V20.624H40.2283V0.376033H53.5132V5.11984H45.6235V8.15703H52.9041V12.814H45.6235Z" fill="black"/>
<path d="M74.5458 20.0165V20.624H68.5705L63.7554 13.4504V20.624H58.3312V0.376033H66.0469C68.4254 0.376033 70.2915 0.983472 71.6452 2.19835C72.9988 3.39394 73.6756 5.03306 73.6756 7.1157C73.6756 8.56198 73.3372 9.80579 72.6604 10.8471C71.9836 11.8691 71.0167 12.6212 69.7597 13.1033L74.5458 20.0165ZM63.7264 9.71901H65.9019C66.6561 9.71901 67.2362 9.53581 67.6423 9.16942C68.0484 8.78375 68.2514 8.2438 68.2514 7.54959C68.2514 6.83609 68.0387 6.29614 67.6133 5.92975C67.2072 5.54408 66.6367 5.35124 65.9019 5.35124H63.7264V9.71901Z" fill="black"/>
<path d="M97.8359 9.40083C97.9326 11.6763 97.5555 13.6915 96.7047 15.4463C95.8538 17.2011 94.6162 18.5702 92.9918 19.5537C91.3868 20.5179 89.5207 21 87.3936 21C85.3631 21 83.5454 20.5565 81.9404 19.6694C80.3354 18.7631 79.0784 17.5193 78.1696 15.938C77.28 14.3375 76.8353 12.5248 76.8353 10.5C76.8353 8.49449 77.28 6.69146 78.1696 5.09091C79.0591 3.49036 80.2967 2.24656 81.8824 1.35951C83.4681 0.453169 85.2665 0 87.2776 0C89.018 0 90.6036 0.318182 92.0346 0.954547C93.4656 1.59091 94.6645 2.49725 95.6314 3.67355C96.5983 4.83058 97.2461 6.19008 97.5748 7.75207H92.0346C91.1257 6.03581 89.6368 5.17769 87.5676 5.17769C86.5621 5.17769 85.6629 5.40909 84.87 5.8719C84.0965 6.31543 83.4874 6.94215 83.0426 7.75207C82.6172 8.56198 82.4045 9.4876 82.4045 10.5289C82.4045 12.1295 82.8783 13.4215 83.8258 14.405C84.7733 15.3691 86.0496 15.8512 87.6547 15.8512C88.6795 15.8512 89.5594 15.6488 90.2942 15.2438C91.0291 14.8196 91.5899 14.1928 91.9766 13.3636H86.4944V9.40083H97.8359Z" fill="black"/>
<path d="M107.411 12.814V15.7934H115.532V20.624H102.015V0.376033H115.3V5.11984H107.411V8.15703H114.691V12.814H107.411Z" fill="black"/>
<path d="M131.605 5.9876V0.376033H137V20.624H132.823L125.426 10.5L125.513 15.7066V20.624H120.118V0.376033H124.237L131.692 10.5579L131.605 5.9876Z" fill="black"/>
</g>
</g>
</svg>
