<svg width="159" height="43" viewBox="0 0 159 43" fill="none" xmlns="http://www.w3.org/2000/svg">
<g id="Logo 2">
<g id="ENERGEN">
<path d="M0 41.7837V16.5769H15.7865V21.865H6.16661V26.4481H13.8484V31.7362H6.16661V36.4955H16.2799V41.7837H0Z" fill="#028DFF"/>
<path d="M20.2342 41.7837V16.5769H26.4713L33.4484 28.3518C33.7303 28.8454 34.0474 29.4564 34.3998 30.185C34.7522 30.8901 35.0341 31.4777 35.2455 31.9477L35.5626 32.6528H35.6331C35.4452 30.8431 35.3512 29.4094 35.3512 28.3518V16.5769H41.5178V41.7837H35.316L28.3036 30.044C28.0217 29.5504 27.7046 28.9511 27.3522 28.246C26.9998 27.5175 26.7179 26.9181 26.5065 26.4481L26.1894 25.743H26.1189C26.3068 27.5527 26.4008 28.9864 26.4008 30.044V41.7837H20.2342Z" fill="#028DFF"/>
<path d="M46.8002 41.7837V16.5769H62.5867V21.865H52.9668V26.4481H60.6486V31.7362H52.9668V36.4955H63.08V41.7837H46.8002Z" fill="#028DFF"/>
<path d="M67.0344 41.7837V16.5769H75.8086C78.0403 16.5769 79.673 16.7767 80.7066 17.1762C82.1631 17.7403 83.3025 18.6569 84.1247 19.926C84.9469 21.1717 85.358 22.6994 85.358 24.5091C85.358 25.9193 85.0291 27.2707 84.3714 28.5633C83.7136 29.8325 82.7857 30.7726 81.5876 31.3837V31.4542C81.8225 31.7597 82.1396 32.265 82.539 32.9701L87.437 41.7837H80.5657L76.0905 33.2874H73.201V41.7837H67.0344ZM73.201 27.9993H75.8791C76.8892 27.9993 77.6762 27.729 78.24 27.1884C78.8038 26.6479 79.0857 25.884 79.0857 24.8969C79.0857 23.5102 78.5924 22.6171 77.6057 22.2176C77.0654 21.9825 76.2902 21.865 75.28 21.865H73.201V27.9993Z" fill="#028DFF"/>
<path d="M88.8889 29.1274C88.8889 25.4375 90.134 22.3586 92.6242 19.8908C95.1378 17.3995 98.2974 16.1538 102.103 16.1538C106.026 16.1538 109.256 17.2702 111.793 19.503L108.834 24.1213C108.105 23.4632 107.166 22.9109 106.015 22.4643C104.863 22.0178 103.759 21.7945 102.702 21.7945C100.212 21.7945 98.3444 22.4761 97.0993 23.8393C95.8778 25.1789 95.267 26.8711 95.267 28.9159C95.267 31.2427 95.96 33.0994 97.346 34.486C98.7555 35.8727 100.47 36.566 102.491 36.566C104.323 36.566 106.026 35.955 107.6 34.7328V32.7938H104.041V27.541H113.062V41.7837H107.917V41.0786L107.953 40.021H107.882C107.13 40.679 106.144 41.2078 104.922 41.6074C103.724 42.0069 102.502 42.2067 101.257 42.2067C97.8746 42.2067 94.9616 41.0198 92.5184 38.646C90.0988 36.2723 88.8889 33.0994 88.8889 29.1274Z" fill="#028DFF"/>
<path d="M117.482 41.7837V16.5769H133.269V21.865H123.649V26.4481H131.331V31.7362H123.649V36.4955H133.762V41.7837H117.482Z" fill="#028DFF"/>
<path d="M137.716 41.7837V16.5769H143.953L150.931 28.3518C151.212 28.8454 151.53 29.4564 151.882 30.185C152.234 30.8901 152.516 31.4777 152.728 31.9477L153.045 32.6528H153.115C152.927 30.8431 152.833 29.4094 152.833 28.3518V16.5769H159V41.7837H152.798L145.786 30.044C145.504 29.5504 145.187 28.9511 144.834 28.246C144.482 27.5175 144.2 26.9181 143.989 26.4481L143.672 25.743H143.601C143.789 27.5527 143.883 28.9864 143.883 30.044V41.7837H137.716Z" fill="#028DFF"/>
</g>
<g id="&#208;&#151;&#208;&#144;&#208;&#146;&#208;&#158;&#208;&#148; &#208;&#147;&#208;&#149;&#208;&#157;&#208;&#149;&#208;&#160;&#208;&#144;&#208;&#162;&#208;&#158;&#208;&#160;&#208;&#158;&#208;&#146;">
<path d="M0 9.48992L1.03371 8.20061C1.31921 8.51044 1.67363 8.7703 2.09696 8.98019C2.52029 9.19008 2.95346 9.29502 3.39648 9.29502C3.96749 9.29502 4.42035 9.1501 4.75508 8.86026C5.0898 8.57041 5.25717 8.17062 5.25717 7.6609C5.25717 7.20114 5.10457 6.84134 4.79938 6.58147C4.50403 6.31162 4.10039 6.17669 3.58846 6.17669H2.3037V4.61753H3.33742C3.80997 4.61753 4.19884 4.4776 4.50403 4.19775C4.80923 3.9179 4.96182 3.56809 4.96182 3.14831C4.96182 2.71854 4.82399 2.36873 4.54834 2.09888C4.27268 1.81903 3.87396 1.6791 3.35218 1.6791C2.55475 1.6791 1.79669 1.97894 1.07801 2.57862L0.310114 1.16937C1.23553 0.389791 2.35785 0 3.67706 0C4.57295 0 5.331 0.259861 5.95123 0.779583C6.5813 1.2993 6.89634 2.00892 6.89634 2.90844C6.89634 3.95788 6.41394 4.74746 5.44914 5.27717V5.30716C5.99061 5.47707 6.41886 5.77691 6.7339 6.20668C7.04894 6.63645 7.20646 7.16116 7.20646 7.78083C7.20646 8.76031 6.85696 9.54489 6.15797 10.1346C5.46883 10.7143 4.6074 11.0041 3.57369 11.0041C2.90424 11.0041 2.24956 10.8742 1.60964 10.6143C0.979566 10.3445 0.44302 9.96966 0 9.48992Z" fill="#5A5A5A"/>
<path d="M8.03123 10.8242L11.7083 0.179904H13.7167L17.3937 10.8242H15.4444L14.5436 8.09566H10.8666L9.98052 10.8242H8.03123ZM11.3391 6.52151H14.0711L13.1407 3.67303L12.7272 2.02392H12.6977C12.5402 2.72354 12.4024 3.27325 12.2842 3.67303L11.3391 6.52151Z" fill="#5A5A5A"/>
<path d="M18.9353 10.8242V0.179904H22.6714C23.6461 0.179904 24.4287 0.424773 25.0194 0.914511C25.62 1.39425 25.9202 2.0639 25.9202 2.92343C25.9202 3.42317 25.807 3.87293 25.5806 4.27271C25.3541 4.6725 25.044 4.98233 24.6502 5.20221V5.2322C25.2016 5.39211 25.62 5.70694 25.9055 6.17669C26.2008 6.64644 26.3485 7.16616 26.3485 7.73586C26.3485 8.74532 26.0039 9.5149 25.3148 10.0446C24.6256 10.5643 23.7642 10.8242 22.7305 10.8242H18.9353ZM20.8403 4.52758H22.6862C23.0898 4.52758 23.4049 4.40264 23.6313 4.15278C23.8676 3.89292 23.9857 3.56309 23.9857 3.16331C23.9857 2.77351 23.8676 2.45868 23.6313 2.21881C23.4049 1.96895 23.08 1.84401 22.6567 1.84401H20.8403V4.52758ZM20.8403 9.16009H22.8782C23.3507 9.16009 23.7199 9.02017 23.9857 8.74032C24.2614 8.45047 24.3992 8.07567 24.3992 7.61592C24.3992 7.16616 24.2614 6.80136 23.9857 6.52151C23.7199 6.23166 23.3507 6.08674 22.8782 6.08674H20.8403V9.16009Z" fill="#5A5A5A"/>
<path d="M27.8077 5.42709C27.8077 3.89791 28.3245 2.6136 29.3582 1.57416C30.4018 0.524719 31.6915 0 33.2273 0C34.7631 0 36.0478 0.524719 37.0816 1.57416C38.1251 2.6136 38.6469 3.89791 38.6469 5.42709C38.6469 6.99625 38.1251 8.32054 37.0816 9.39997C36.0478 10.4694 34.7631 11.0041 33.2273 11.0041C31.6915 11.0041 30.4018 10.4694 29.3582 9.39997C28.3245 8.32054 27.8077 6.99625 27.8077 5.42709ZM29.7717 5.42709C29.7717 6.50652 30.1065 7.41103 30.7759 8.14064C31.4454 8.87025 32.2625 9.23505 33.2273 9.23505C34.1921 9.23505 35.0092 8.87025 35.6787 8.14064C36.3481 7.41103 36.6828 6.50652 36.6828 5.42709C36.6828 4.39764 36.3481 3.53311 35.6787 2.83348C35.0092 2.12386 34.1921 1.76905 33.2273 1.76905C32.2625 1.76905 31.4454 2.12386 30.7759 2.83348C30.1065 3.53311 29.7717 4.39764 29.7717 5.42709Z" fill="#5A5A5A"/>
<path d="M42.2328 9.16009H46.3972V1.84401H43.5914V2.63859C43.5914 5.49706 43.1385 7.67089 42.2328 9.16009ZM39.2055 9.16009H40.2688C41.2828 7.60093 41.7898 5.38212 41.7898 2.50366V0.179904H48.3022V9.16009H49.4688V12.9231H47.7706V10.8242H40.9628V12.9231H39.2055V9.16009Z" fill="#5A5A5A"/>
<path d="M55.2906 10.8242V0.179904H61.3157V1.84401H57.1956V10.8242H55.2906Z" fill="#5A5A5A"/>
<path d="M62.9085 10.8242V0.179904H69.1846V1.84401H64.8134V4.63252H68.3428V6.29663H64.8134V9.16009H69.4208V10.8242H62.9085Z" fill="#5A5A5A"/>
<path d="M71.4637 10.8242V0.179904H73.3687V4.69249H78.1681V0.179904H80.0583V10.8242H78.1681V6.3566H73.3687V10.8242H71.4637Z" fill="#5A5A5A"/>
<path d="M82.7445 10.8242V0.179904H89.0207V1.84401H84.6495V4.63252H88.1789V6.29663H84.6495V9.16009H89.2569V10.8242H82.7445Z" fill="#5A5A5A"/>
<path d="M91.2998 10.8242V0.179904H95.346C96.3305 0.179904 97.1329 0.499733 97.7531 1.13939C98.3733 1.77905 98.6834 2.6136 98.6834 3.64305C98.6834 4.6725 98.3733 5.51705 97.7531 6.17669C97.1329 6.82634 96.3305 7.15117 95.346 7.15117H93.2048V10.8242H91.2998ZM93.2048 5.47207H94.9916C95.5429 5.47207 95.9712 5.30716 96.2764 4.97733C96.5914 4.64751 96.7489 4.20275 96.7489 3.64305C96.7489 3.09334 96.5914 2.65858 96.2764 2.33875C95.9712 2.00892 95.5528 1.84401 95.0211 1.84401H93.2048V5.47207Z" fill="#5A5A5A"/>
<path d="M98.8041 10.8242L102.481 0.179904H104.49L108.167 10.8242H106.217L105.317 8.09566H101.639L100.753 10.8242H98.8041ZM102.112 6.52151H104.844L103.914 3.67303L103.5 2.02392H103.471C103.313 2.72354 103.175 3.27325 103.057 3.67303L102.112 6.52151Z" fill="#5A5A5A"/>
<path d="M111.22 10.8242V1.84401H107.78V0.179904H116.551V1.84401H113.111V10.8242H111.22Z" fill="#5A5A5A"/>
<path d="M117.196 5.42709C117.196 3.89791 117.713 2.6136 118.747 1.57416C119.79 0.524719 121.08 0 122.616 0C124.152 0 125.436 0.524719 126.47 1.57416C127.514 2.6136 128.035 3.89791 128.035 5.42709C128.035 6.99625 127.514 8.32054 126.47 9.39997C125.436 10.4694 124.152 11.0041 122.616 11.0041C121.08 11.0041 119.79 10.4694 118.747 9.39997C117.713 8.32054 117.196 6.99625 117.196 5.42709ZM119.16 5.42709C119.16 6.50652 119.495 7.41103 120.164 8.14064C120.834 8.87025 121.651 9.23505 122.616 9.23505C123.581 9.23505 124.398 8.87025 125.067 8.14064C125.737 7.41103 126.071 6.50652 126.071 5.42709C126.071 4.39764 125.737 3.53311 125.067 2.83348C124.398 2.12386 123.581 1.76905 122.616 1.76905C121.651 1.76905 120.834 2.12386 120.164 2.83348C119.495 3.53311 119.16 4.39764 119.16 5.42709Z" fill="#5A5A5A"/>
<path d="M130.107 10.8242V0.179904H134.153C135.137 0.179904 135.94 0.499733 136.56 1.13939C137.18 1.77905 137.49 2.6136 137.49 3.64305C137.49 4.6725 137.18 5.51705 136.56 6.17669C135.94 6.82634 135.137 7.15117 134.153 7.15117H132.012V10.8242H130.107ZM132.012 5.47207H133.799C134.35 5.47207 134.778 5.30716 135.083 4.97733C135.398 4.64751 135.556 4.20275 135.556 3.64305C135.556 3.09334 135.398 2.65858 135.083 2.33875C134.778 2.00892 134.36 1.84401 133.828 1.84401H132.012V5.47207Z" fill="#5A5A5A"/>
<path d="M138.676 5.42709C138.676 3.89791 139.193 2.6136 140.227 1.57416C141.27 0.524719 142.56 0 144.096 0C145.632 0 146.916 0.524719 147.95 1.57416C148.994 2.6136 149.515 3.89791 149.515 5.42709C149.515 6.99625 148.994 8.32054 147.95 9.39997C146.916 10.4694 145.632 11.0041 144.096 11.0041C142.56 11.0041 141.27 10.4694 140.227 9.39997C139.193 8.32054 138.676 6.99625 138.676 5.42709ZM140.64 5.42709C140.64 6.50652 140.975 7.41103 141.644 8.14064C142.314 8.87025 143.131 9.23505 144.096 9.23505C145.061 9.23505 145.878 8.87025 146.547 8.14064C147.217 7.41103 147.551 6.50652 147.551 5.42709C147.551 4.39764 147.217 3.53311 146.547 2.83348C145.878 2.12386 145.061 1.76905 144.096 1.76905C143.131 1.76905 142.314 2.12386 141.644 2.83348C140.975 3.53311 140.64 4.39764 140.64 5.42709Z" fill="#5A5A5A"/>
<path d="M151.587 10.8242V0.179904H155.323C156.298 0.179904 157.08 0.424773 157.671 0.914511C158.271 1.39425 158.572 2.0639 158.572 2.92343C158.572 3.42317 158.459 3.87293 158.232 4.27271C158.006 4.6725 157.696 4.98233 157.302 5.20221V5.2322C157.853 5.39211 158.271 5.70694 158.557 6.17669C158.852 6.64644 159 7.16616 159 7.73586C159 8.74532 158.655 9.5149 157.966 10.0446C157.277 10.5643 156.416 10.8242 155.382 10.8242H151.587ZM153.492 4.52758H155.338C155.741 4.52758 156.056 4.40264 156.283 4.15278C156.519 3.89292 156.637 3.56309 156.637 3.16331C156.637 2.77351 156.519 2.45868 156.283 2.21881C156.056 1.96895 155.732 1.84401 155.308 1.84401H153.492V4.52758ZM153.492 9.16009H155.53C156.002 9.16009 156.371 9.02017 156.637 8.74032C156.913 8.45047 157.051 8.07567 157.051 7.61592C157.051 7.16616 156.913 6.80136 156.637 6.52151C156.371 6.23166 156.002 6.08674 155.53 6.08674H153.492V9.16009Z" fill="#5A5A5A"/>
</g>
</g>
</svg>
