<svg width="20" height="20" viewBox="0 0 20 20"  xmlns="http://www.w3.org/2000/svg">
<g id="vuesax/outline/percentage-circle">
<g id="percentage-circle">
<path id="Vector" d="M7.14147 13.3498C6.98314 13.3498 6.8248 13.2915 6.6998 13.1665C6.45814 12.9248 6.45814 12.5248 6.6998 12.2831L12.1581 6.8248C12.3998 6.58314 12.7998 6.58314 13.0415 6.8248C13.2831 7.06647 13.2831 7.46647 13.0415 7.70814L7.58314 13.1665C7.45814 13.2915 7.2998 13.3498 7.14147 13.3498Z" />
<path id="Vector_2" d="M7.48332 9.258C6.57499 9.258 5.83331 8.51635 5.83331 7.60802C5.83331 6.69968 6.57499 5.95801 7.48332 5.95801C8.39166 5.95801 9.13331 6.69968 9.13331 7.60802C9.13331 8.51635 8.39166 9.258 7.48332 9.258ZM7.48332 7.21635C7.26666 7.21635 7.08331 7.39136 7.08331 7.61636C7.08331 7.84136 7.25832 8.01634 7.48332 8.01634C7.70832 8.01634 7.88331 7.84136 7.88331 7.61636C7.88331 7.39136 7.69999 7.21635 7.48332 7.21635Z" />
<path id="Vector_3" d="M12.9334 14.0334C12.025 14.0334 11.2834 13.2917 11.2834 12.3834C11.2834 11.475 12.025 10.7334 12.9334 10.7334C13.8417 10.7334 14.5834 11.475 14.5834 12.3834C14.5834 13.2917 13.8417 14.0334 12.9334 14.0334ZM12.9334 11.9917C12.7167 11.9917 12.5334 12.1667 12.5334 12.3917C12.5334 12.6167 12.7084 12.7917 12.9334 12.7917C13.1584 12.7917 13.3334 12.6167 13.3334 12.3917C13.3334 12.1667 13.1584 11.9917 12.9334 11.9917Z" />
<path id="Vector_4" d="M10 18.9587C5.05835 18.9587 1.04169 14.942 1.04169 10.0003C1.04169 5.05866 5.05835 1.04199 10 1.04199C14.9417 1.04199 18.9584 5.05866 18.9584 10.0003C18.9584 14.942 14.9417 18.9587 10 18.9587ZM10 2.29199C5.75002 2.29199 2.29169 5.75033 2.29169 10.0003C2.29169 14.2503 5.75002 17.7087 10 17.7087C14.25 17.7087 17.7084 14.2503 17.7084 10.0003C17.7084 5.75033 14.25 2.29199 10 2.29199Z" />
</g>
</g>
</svg>
